<?xml version="1.0" encoding="UTF-8"?>
<svg version="1.1" xmlns="http://www.w3.org/2000/svg" width="512" height="512">
<path d="M0 0 C1.03837006 -0.00170983 2.07674011 -0.00341967 3.14657593 -0.00518131 C6.62759908 -0.00950937 10.10857571 -0.00651975 13.58959961 -0.00341797 C16.08898437 -0.0047334 18.58836897 -0.00639513 21.0877533 -0.00837708 C29.30583075 -0.01255625 37.52387313 -0.00528274 45.74194336 0.00439453 C46.79143913 0.00556786 46.79143913 0.00556786 47.86213684 0.00676489 C61.81049945 0.02236643 75.75884959 0.04332289 89.70718384 0.07572937 C92.78794333 0.08279786 95.868703 0.08978521 98.94946289 0.09667969 C99.71651086 0.09839963 100.48355883 0.10011957 101.27385068 0.10189164 C113.85249869 0.1292888 126.43099394 0.12838454 139.00966012 0.11699486 C152.12209956 0.10563844 165.23430806 0.12087898 178.34669209 0.16107178 C185.74118951 0.18303675 193.1353013 0.19319831 200.52981567 0.17352295 C207.49380174 0.1550382 214.45692117 0.17202125 221.42080879 0.21294594 C223.98035756 0.22224188 226.53998172 0.21958615 229.09950066 0.20412254 C232.59849854 0.18480106 236.09468289 0.20851686 239.59350586 0.24291992 C240.60758042 0.2271031 241.62165499 0.21128628 242.66645908 0.19499016 C249.07884996 0.31740865 252.35533676 1.67312167 256.89770699 6.22031879 C257.77966649 7.16531128 257.77966649 7.16531128 258.67944336 8.12939453 C259.74134871 9.15539848 260.80624938 10.17831454 261.87461853 11.19758606 C262.91483608 12.23200656 263.95248169 13.26901863 264.98779297 14.30834961 C265.85032684 15.168255 265.85032684 15.168255 266.73028564 16.04553223 C268.59994864 17.91085033 270.46599704 19.77973441 272.33178711 21.64892578 C273.64060631 22.95707038 274.94957384 24.26506658 276.25868225 25.57292175 C278.9859302 28.29870322 281.71138053 31.02626581 284.43554688 33.75512695 C287.93153538 37.25684625 291.43204032 40.75401102 294.93387508 44.2498827 C297.63018731 46.94258989 300.32412388 49.63766362 303.01733589 52.3334713 C304.30803551 53.62483858 305.59948 54.91546182 306.89167595 56.2053318 C308.6891618 58.00028844 310.48342878 59.79840102 312.27685547 61.59741211 C312.81238541 62.13091782 313.34791534 62.66442352 313.89967346 63.21409607 C318.38577174 67.72620987 318.80557766 69.67028758 318.82661438 76.02462769 C318.83212941 77.10101539 318.83212941 77.10101539 318.83775586 78.1991483 C318.84881349 80.61584559 318.85264002 83.03249992 318.85644531 85.44921875 C318.8627083 87.17699318 318.86935495 88.90476625 318.87635803 90.63253784 C318.89378091 95.33501266 318.90432291 100.0374773 318.91256356 104.73997641 C318.91771008 107.67579546 318.92378591 110.61161132 318.93007469 113.54742813 C318.94912878 122.72685419 318.96336049 131.90627218 318.97168666 141.08571422 C318.98146647 151.69346332 319.00780445 162.30100416 319.04818755 172.90867984 C319.07830772 181.10064877 319.09315156 189.29255786 319.09646767 197.48458111 C319.0988225 202.38085543 319.1078391 207.27690732 319.13292885 212.17312241 C319.15614355 216.77782267 319.16046957 221.38215299 319.15016747 225.98689651 C319.14967041 227.67841571 319.15604064 229.3699527 319.16972351 231.06141663 C319.18734172 233.36812337 319.18038745 235.67348788 319.16719055 237.98019409 C319.16957891 239.2717938 319.17196726 240.56339352 319.17442799 241.89413261 C318.59581453 245.67599971 317.68962025 246.8494983 314.67944336 249.12939453 C311.93855108 249.85744404 309.4492313 249.70382694 306.67944336 249.12939453 C303.71086179 246.92198773 302.85078545 245.6434208 301.67944336 242.12939453 C301.58743896 239.97333563 301.55750945 237.81446875 301.55918884 235.65644836 C301.55790721 234.66642556 301.55790721 234.66642556 301.55659968 233.65640229 C301.55495015 231.4407479 301.56045763 229.22516892 301.56591797 227.00952148 C301.56619998 225.42289227 301.56604183 223.83626293 301.56547546 222.24963379 C301.56518803 217.93795409 301.57107601 213.62630209 301.57804942 209.31462884 C301.58429197 204.8102738 301.58488747 200.30591815 301.58607483 195.80155945 C301.58918548 187.26994669 301.59739529 178.73834672 301.60742432 170.2067396 C301.61859371 160.49464375 301.62409799 150.78254729 301.62911975 141.07044661 C301.63957811 121.09008878 301.65717242 101.10974246 301.67944336 81.12939453 C301.12091675 81.13827698 300.56239014 81.14715942 299.98693848 81.15631104 C294.14658903 81.24516077 288.30643319 81.30528398 282.46557617 81.34912109 C280.28906448 81.36917217 278.11260622 81.39642024 275.9362793 81.43115234 C272.79844943 81.47995665 269.66133501 81.50242891 266.52319336 81.52001953 C265.55828979 81.54066467 264.59338623 81.56130981 263.59924316 81.58258057 C256.29327348 81.5849789 250.98009721 80.02177935 245.43725586 75.16455078 C244.62901367 74.18808594 244.62901367 74.18808594 243.80444336 73.19189453 C243.25014648 72.54349609 242.69584961 71.89509766 242.12475586 71.22705078 C239.47077015 67.37518503 238.4272889 63.90404671 238.45239258 59.24731445 C238.45254364 58.30671677 238.4526947 57.36611908 238.45285034 56.39701843 C238.46317291 55.39475723 238.47349548 54.39249603 238.48413086 53.35986328 C238.4883757 51.80565422 238.4883757 51.80565422 238.4927063 50.220047 C238.50387882 46.91887747 238.52897831 43.61798172 238.55444336 40.31689453 C238.56447693 38.075362 238.57360212 35.8338252 238.58178711 33.59228516 C238.60380857 28.10456193 238.63725715 22.6169978 238.67944336 17.12939453 C207.17077692 17.2112924 175.66216043 17.30330008 144.15356698 17.40944614 C140.434735 17.4219652 136.71590275 17.43439794 132.99707031 17.44677734 C132.2567094 17.44924334 131.51634849 17.45170933 130.7535524 17.45425005 C118.76153595 17.49398717 106.76951007 17.52673029 94.77746616 17.55689435 C82.47496862 17.58799477 70.17251118 17.62659812 57.87005872 17.67218459 C50.27716064 17.70008288 42.68429194 17.72211009 35.09135636 17.73665704 C29.27171243 17.74843309 23.45213787 17.77064177 17.63253975 17.79677773 C15.24322817 17.80586618 12.85390088 17.81154667 10.46457291 17.81360817 C7.20818886 17.8169217 3.95208267 17.83237484 0.695755 17.85092163 C-0.25463597 17.8489869 -1.20502694 17.84705216 -2.18421763 17.8450588 C-9.30168112 17.7475118 -9.30168112 17.7475118 -15.32055664 21.12939453 C-15.42201036 23.46256453 -15.45787696 25.76626191 -15.45198441 28.10008812 C-15.45403704 28.84153922 -15.45608967 29.58299032 -15.45820451 30.34690964 C-15.46391631 32.86315576 -15.46241215 35.37934785 -15.46099854 37.89559937 C-15.46357978 39.70511235 -15.46659226 41.51462476 -15.47000194 43.32413638 C-15.47810346 48.32137893 -15.47986325 53.31860716 -15.4805994 58.3158555 C-15.4824445 63.69563594 -15.48998903 69.07540883 -15.49673462 74.45518494 C-15.51034062 86.22974402 -15.51634612 98.0042997 -15.52074528 109.77886534 C-15.52350376 117.12436337 -15.52774037 124.46986007 -15.53224945 131.81535721 C-15.54444486 152.13409276 -15.55474378 172.45282725 -15.55812454 192.77156639 C-15.55834411 194.07305792 -15.55856367 195.37454946 -15.55878989 196.71548013 C-15.55900817 198.02016782 -15.55922645 199.3248555 -15.55945134 200.66907918 C-15.55989482 203.31307753 -15.56034138 205.95707587 -15.56079102 208.60107422 C-15.56101245 209.91260167 -15.56123388 211.22412912 -15.56146201 212.57539983 C-15.56541208 233.83849763 -15.58287124 255.1015612 -15.60615054 276.36464576 C-15.62983236 298.17054257 -15.64232494 319.97642218 -15.64349246 341.78233206 C-15.64441099 354.03549348 -15.65020781 366.28861031 -15.66831207 378.54175949 C-15.68367034 388.97350338 -15.6888589 399.4051889 -15.68057397 409.83694194 C-15.6766523 415.16381545 -15.67767055 420.49057127 -15.69163132 425.8174305 C-15.70427984 430.68792992 -15.70325317 435.55822214 -15.69104061 440.42872091 C-15.68906779 442.19656776 -15.69223422 443.96442884 -15.70088497 445.73225562 C-15.71185403 448.12409983 -15.70457896 450.5151966 -15.69249344 452.90701866 C-15.70388623 453.9512298 -15.70388623 453.9512298 -15.71550918 455.01653612 C-15.68540993 457.75095803 -15.58394374 459.70559557 -14.12244487 462.05719781 C-11.6801667 463.51045257 -9.95842799 463.50544475 -7.1184082 463.50691795 C-6.03443253 463.5147412 -4.95045685 463.52256444 -3.83363342 463.53062475 C-2.63822433 463.52393258 -1.44281525 463.51724042 -0.21118164 463.51034546 C1.05516617 463.51502543 2.32151398 463.5197054 3.62623596 463.52452719 C7.14823454 463.53708859 10.66999027 463.53084367 14.1919899 463.52156854 C17.98754804 463.51479931 21.78306353 463.52524868 25.57861328 463.5335083 C33.01685469 463.54687063 40.45500545 463.5439568 47.89325047 463.53527038 C53.93673511 463.52850405 59.9801943 463.52757255 66.02368164 463.53084183 C66.88277099 463.53130153 67.74186033 463.53176123 68.62698269 463.53223485 C70.3720309 463.533194 72.11707911 463.53416664 73.8621273 463.53515263 C90.23780296 463.54371384 106.61342829 463.53386093 122.98909569 463.51775153 C137.04996596 463.50434768 151.11076193 463.50667557 165.17163086 463.52050781 C181.48742395 463.53655073 197.8031729 463.5428898 214.11897278 463.53367102 C215.85771687 463.53271534 217.59646097 463.53177223 219.33520508 463.53084183 C220.19077216 463.530379 221.04633924 463.52991617 221.9278326 463.52943932 C227.96630345 463.52684556 234.00474637 463.53122873 240.04321289 463.53828049 C247.39888234 463.54668139 254.7544557 463.54444515 262.1101141 463.52843826 C265.86540454 463.52053645 269.6205346 463.51749622 273.37582397 463.52738571 C277.44071265 463.53792889 281.50519394 463.52536779 285.57006836 463.51034546 C286.76547745 463.51703762 287.96088654 463.52372979 289.19252014 463.53062475 C290.27649582 463.52280151 291.3604715 463.51497826 292.47729492 463.50691795 C293.41623596 463.5064309 294.355177 463.50594384 295.3225708 463.50544202 C298.11509714 463.0598844 299.00359457 462.36757332 300.67944336 460.12939453 C301.13513571 458.09405889 301.13513571 458.09405889 301.08007812 455.82910156 C301.0934169 454.96455353 301.10675568 454.10000549 301.12049866 453.20925903 C301.12061447 452.27798187 301.12073029 451.34670471 301.12084961 450.38720703 C301.13405746 449.42668427 301.14726532 448.4661615 301.16087341 447.47653198 C301.2018172 444.40245696 301.22344672 441.32868073 301.24194336 438.25439453 C301.26575065 435.18734156 301.29393059 432.12056934 301.33372498 429.05368042 C301.35802077 427.14502725 301.37292908 425.23622581 301.37733459 423.3274231 C301.47590123 414.90097447 301.47590123 414.90097447 303.67944336 411.12939453 C306.89380865 408.98648434 308.85370945 408.82913662 312.64428711 408.66845703 C315.86373242 409.39762123 316.74222221 410.41028741 318.67944336 413.12939453 C319.29928022 416.87831513 319.2393966 420.60255083 319.21069336 424.39501953 C319.21643372 426.0560672 319.21643372 426.0560672 319.22229004 427.75067139 C319.22501177 430.09420683 319.21763244 432.43777251 319.20092773 434.78125 C319.1796044 438.35242357 319.20068013 441.92156654 319.22631836 445.49267578 C319.22367354 447.77262811 319.21854539 450.05257919 319.21069336 452.33251953 C319.21879028 453.39424377 319.22688721 454.45596802 319.23522949 455.54986572 C319.1400717 463.15382439 317.86132973 468.4983751 312.71459961 474.37158203 C312.06362305 474.91041016 311.41264648 475.44923828 310.74194336 476.00439453 C310.09354492 476.55869141 309.44514648 477.11298828 308.77709961 477.68408203 C304.67272469 480.51204985 301.0670153 481.37940205 296.12022686 481.38666344 C294.45111469 481.39633678 294.45111469 481.39633678 292.74828309 481.40620553 C290.9223325 481.40155973 290.9223325 481.40155973 289.05949402 481.39682007 C287.76229677 481.40135118 286.46509952 481.40588229 285.12859327 481.41055071 C281.52960886 481.42278651 277.93071736 481.42251957 274.3317169 481.42016196 C270.44952866 481.41975394 266.56737027 481.43079155 262.68519592 481.4402771 C255.07980446 481.4568913 247.47444401 481.46238684 239.86903592 481.46350186 C233.68691518 481.46445214 227.50480466 481.46856146 221.32268715 481.47490311 C203.79541397 481.49251675 186.26816529 481.5017418 168.74088319 481.50024216 C167.7959474 481.50016225 166.85101161 481.50008233 165.87744141 481.5 C164.9313519 481.49991824 163.98526239 481.49983648 163.01050351 481.49975224 C147.67758294 481.49893933 132.3447606 481.51807794 117.01186844 481.54627673 C101.26833174 481.57500228 85.52484296 481.58881721 69.78127939 481.58708918 C60.94239772 481.58642516 52.10361903 481.59192273 43.26476097 481.61344528 C35.73909319 481.63165276 28.21357505 481.63600802 20.68789478 481.62242644 C16.84888402 481.61589452 13.0101604 481.61578737 9.17117691 481.63313293 C5.00734831 481.65175257 0.84418506 481.63931508 -3.31965637 481.62387085 C-4.5302646 481.63415798 -5.74087283 481.6444451 -6.98816615 481.65504396 C-14.94355266 481.58974617 -20.41129844 480.55510337 -26.56274414 475.16455078 C-27.10157227 474.51357422 -27.64040039 473.86259766 -28.19555664 473.19189453 C-28.74985352 472.54349609 -29.30415039 471.89509766 -29.87524414 471.22705078 C-33.12954591 466.5039155 -33.61081617 462.19005646 -33.57782555 456.57115459 C-33.58308466 455.43657392 -33.58308466 455.43657392 -33.58845001 454.27907243 C-33.59777878 451.73599881 -33.59283691 449.19315344 -33.58798218 446.65007019 C-33.59171769 444.81179359 -33.59631882 442.97351858 -33.60171282 441.1352461 C-33.61397042 436.07686768 -33.61367911 431.01855527 -33.61132407 425.96016538 C-33.6109166 420.50741449 -33.62194835 415.05468496 -33.63143921 409.60194397 C-33.64806524 398.91643 -33.65354948 388.23093809 -33.65466397 377.54541226 C-33.65561367 368.86138546 -33.65972006 360.17736595 -33.66606522 351.49334145 C-33.68368189 326.88286642 -33.69291554 302.27240784 -33.69140427 277.66192659 C-33.69136438 276.99853678 -33.69132449 276.33514696 -33.69128339 275.65165443 C-33.69120251 274.31011832 -33.69111892 272.96858221 -33.69103261 271.6270461 C-33.68980708 250.7546728 -33.70482013 229.88236448 -33.73217773 209.01000977 C-33.76289794 185.562485 -33.78008493 162.11499587 -33.77825129 138.66744882 C-33.77758676 126.25153262 -33.7831067 113.8356897 -33.80460739 101.41979027 C-33.82279495 90.84919852 -33.82718646 80.27871327 -33.81358854 69.70811268 C-33.80704671 64.31372748 -33.80698562 58.91954673 -33.82429504 53.52518082 C-33.83997693 48.58729104 -33.83721211 43.64976866 -33.81972678 38.71188811 C-33.81664611 36.92522979 -33.82032927 35.13854439 -33.83144693 33.351918 C-33.93578372 15.39607514 -33.93578372 15.39607514 -27.35571289 7.88720703 C-18.66614662 0.69465514 -11.02544355 -0.02314137 0 0 Z M255.67944336 31.12939453 C255.58035196 35.186044 255.5078723 39.24222223 255.4597168 43.29980469 C255.43963694 44.67916133 255.4123667 46.05843322 255.37768555 47.4375 C255.32901519 49.42296432 255.30857918 51.40905707 255.28881836 53.39501953 C255.26787109 54.58901367 255.24692383 55.78300781 255.2253418 57.01318359 C255.77077581 60.75615121 256.70457078 61.87171471 259.67944336 64.12939453 C262.97678982 65.22851002 265.40903081 65.24334013 268.87866211 65.22705078 C270.0871582 65.22382812 271.2956543 65.22060547 272.54077148 65.21728516 C273.8034082 65.20890625 275.06604492 65.20052734 276.36694336 65.19189453 C277.64118164 65.18738281 278.91541992 65.18287109 280.22827148 65.17822266 C283.378709 65.16642326 286.52905285 65.1499605 289.67944336 65.12939453 C285.71991712 60.38897239 281.59696359 55.89818976 277.22241211 51.53955078 C276.63398026 50.9501622 276.0455484 50.36077362 275.43928528 49.75352478 C274.20944855 48.52301347 272.97837192 47.29374019 271.74609375 46.06567383 C269.85095016 44.17594705 267.96128059 42.28086182 266.07202148 40.38525391 C264.87247271 39.18636491 263.67261433 37.98778561 262.47241211 36.78955078 C261.90580368 36.22091812 261.33919525 35.65228546 260.75541687 35.06642151 C258.57686645 32.36581437 258.57686645 32.36581437 255.67944336 31.12939453 Z " fill="#ffffff" transform="translate(49.320556640625,14.87060546875)"/>
<path d="M0 0 C8.86281585 6.49089679 15.38595576 14.23139425 17.40625 25.20703125 C18.8613055 35.70657944 16.64175696 45.06587492 11 54 C3.70362493 63.00447542 -4.86247145 71.06476884 -13.01220703 79.28442383 C-14.51639962 80.80473315 -16.02045988 82.3251734 -17.5243988 83.84573364 C-31.18749848 97.65274734 -44.88490878 111.42587462 -58.59047127 125.19072437 C-68.70434143 135.34921339 -78.80152284 145.52371765 -88.87773049 155.71956807 C-95.98587188 162.90923129 -103.11315771 170.0795656 -110.25459754 177.23615283 C-114.51048978 181.50218167 -118.75748671 185.77625202 -122.98376846 190.07163429 C-126.95939161 194.11155431 -130.95830777 198.12690102 -134.97580147 202.12517166 C-136.4392986 203.58981626 -137.89436781 205.0629428 -139.33985329 206.54536629 C-148.30249908 215.72495154 -155.35627175 221.11719469 -168 224 C-169.80930896 224.54280542 -171.61553009 225.0962614 -173.41552734 225.66918945 C-175.05459909 226.15416728 -176.69474547 226.63552774 -178.3359375 227.11328125 C-179.22560211 227.37255905 -180.11526672 227.63183685 -181.03189087 227.89897156 C-182.88124526 228.43585893 -184.73113009 228.97092259 -186.58154297 229.50415039 C-188.45615785 230.04661236 -190.32919944 230.59453873 -192.20068359 231.14770508 C-194.95082142 231.96051722 -197.70515342 232.75735242 -200.4609375 233.55078125 C-201.28612885 233.79758133 -202.11132019 234.04438141 -202.96151733 234.29866028 C-208.30393511 235.8108198 -213.43962023 236.66857344 -219 236 C-221.5625 234.5625 -221.5625 234.5625 -223 232 C-223.58461063 224.2822635 -221.88604946 217.75287826 -219.74609375 210.37109375 C-219.40755875 209.1820192 -219.06902374 207.99294464 -218.7202301 206.76783752 C-218.00260835 204.26407653 -217.27860093 201.76213796 -216.54858398 199.26196289 C-215.4419207 195.4527165 -214.37151476 191.63447634 -213.30273438 187.81445312 C-212.59854673 185.37436618 -211.89223637 182.93489062 -211.18359375 180.49609375 C-210.86974228 179.36255966 -210.55589081 178.22902557 -210.23252869 177.06114197 C-209.91272537 175.98965408 -209.59292206 174.9181662 -209.26342773 173.81420898 C-208.86038673 172.41597145 -208.86038673 172.41597145 -208.44920349 170.98948669 C-205.08924401 164.0584006 -198.71021605 158.56132565 -193.30314636 153.15597534 C-192.66718688 152.51633917 -192.03122739 151.876703 -191.37599641 151.21768391 C-189.2675729 149.09834319 -187.15567451 146.98250202 -185.04370117 144.86669922 C-183.52178508 143.33850977 -182.00005646 141.81013359 -180.47850037 140.28158569 C-175.50356143 135.28571999 -170.52338919 130.29508763 -165.54296875 125.3046875 C-163.82356335 123.58123126 -162.10419108 121.85774198 -160.38485146 120.13422012 C-152.3100473 112.04039488 -144.23285556 103.94896174 -136.15271109 95.86046779 C-126.84188214 86.53985658 -117.53940056 77.21101647 -108.2438814 67.87513721 C-101.04474101 60.64581802 -93.8379235 53.42420992 -86.62533361 46.20830929 C-82.32326142 41.90389014 -78.02453746 37.5962498 -73.7339077 33.28042221 C-69.69857648 29.22177248 -65.65378117 25.17279726 -61.60164833 21.13092422 C-60.12039252 19.65016283 -58.64252489 18.16600276 -57.16841125 16.6781311 C-41.91741504 1.29284437 -21.89347351 -12.7797584 0 0 Z M-36.56640625 21.35546875 C-37.03949219 21.89816406 -37.51257813 22.44085938 -38 23 C-36.39626852 27.00517396 -33.57886014 29.6771098 -30.5546875 32.640625 C-30.02481232 33.16767029 -29.49493713 33.69471558 -28.94900513 34.23773193 C-27.26232175 35.91325675 -25.56880436 37.58167722 -23.875 39.25 C-22.72740612 40.38755851 -21.58026539 41.52557436 -20.43359375 42.6640625 C-17.62761863 45.44803465 -14.81549536 48.2256576 -12 51 C-6.02624327 48.16637427 -2.09818244 43.5624257 0.5 37.5 C1.49337465 30.54637745 0.5176664 25.57894981 -3.421875 19.828125 C-7.03524073 15.6423449 -11.49892394 13.0292126 -16.9375 12 C-25.53028981 11.4787153 -30.91805675 15.24468128 -36.56640625 21.35546875 Z M-55.76536 40.50719738 C-56.28092139 41.02858445 -56.79648278 41.54997152 -57.32766724 42.0871582 C-57.8765721 42.63435422 -58.42547697 43.18155024 -58.99101532 43.74532795 C-60.84141545 45.59241626 -62.68454604 47.44659532 -64.52783203 49.30078125 C-65.84787789 50.62139086 -67.16836353 51.94156101 -68.48925781 53.26132202 C-72.08442685 56.85591512 -75.67337825 60.45665969 -79.26128626 64.05849838 C-83.00802278 67.81770227 -86.76038999 71.57127681 -90.51217651 75.32543945 C-97.62056352 82.44005301 -104.72383517 89.55975132 -111.82530582 96.68126774 C-119.90832844 104.78661288 -127.99700268 112.88630784 -136.08616853 120.98552132 C-152.73043108 137.65071247 -169.36754497 154.32302509 -186 171 C-184.44805246 174.32759923 -182.69378051 176.48580485 -180 179 C-176.07429348 177.40821971 -173.43359082 174.70805719 -170.50775146 171.7482605 C-169.96530485 171.20752274 -169.42285824 170.66678498 -168.86397386 170.10966122 C-167.0474326 168.29641438 -165.23813228 166.47611144 -163.42871094 164.65576172 C-162.12807444 163.3545611 -160.82699743 162.05380068 -159.5255127 160.75344849 C-155.99244401 157.22095427 -152.46558124 153.68232188 -148.93978405 150.14257193 C-145.25446442 146.44476067 -141.56349072 142.75260198 -137.87310791 139.05984497 C-130.88519806 132.06571575 -123.90240266 125.06650331 -116.92142129 118.06545937 C-108.97379013 110.09548347 -101.02048791 102.13117714 -93.0666995 94.16734672 C-76.70480599 77.78454084 -60.3500626 61.39461256 -44 45 C-45.56377499 41.67697814 -47.21353151 39.43815993 -50 37 C-52.85364116 37 -53.82810448 38.58632895 -55.76536 40.50719738 Z M-35.76536 60.50719738 C-36.28092139 61.02858445 -36.79648278 61.54997152 -37.32766724 62.0871582 C-37.8765721 62.63435422 -38.42547697 63.18155024 -38.99101532 63.74532795 C-40.84141545 65.59241626 -42.68454604 67.44659532 -44.52783203 69.30078125 C-45.84787789 70.62139086 -47.16836353 71.94156101 -48.48925781 73.26132202 C-52.08442685 76.85591512 -55.67337825 80.45665969 -59.26128626 84.05849838 C-63.00802278 87.81770227 -66.76038999 91.57127681 -70.51217651 95.32543945 C-77.62056352 102.44005301 -84.72383517 109.55975132 -91.82530582 116.68126774 C-99.90832844 124.78661288 -107.99700268 132.88630784 -116.08616853 140.98552132 C-132.73043108 157.65071247 -149.36754497 174.32302509 -166 191 C-164.44805246 194.32759923 -162.69378051 196.48580485 -160 199 C-156.07429348 197.40821971 -153.43359082 194.70805719 -150.50775146 191.7482605 C-149.96530485 191.20752274 -149.42285824 190.66678498 -148.86397386 190.10966122 C-147.0474326 188.29641438 -145.23813228 186.47611144 -143.42871094 184.65576172 C-142.12807444 183.3545611 -140.82699743 182.05380068 -139.5255127 180.75344849 C-135.99244401 177.22095427 -132.46558124 173.68232188 -128.93978405 170.14257193 C-125.25446442 166.44476067 -121.56349072 162.75260198 -117.87310791 159.05984497 C-110.88519806 152.06571575 -103.90240266 145.06650331 -96.92142129 138.06545937 C-88.97379013 130.09548347 -81.02048791 122.13117714 -73.0666995 114.16734672 C-56.70480599 97.78454084 -40.3500626 81.39461256 -24 65 C-25.56377499 61.67697814 -27.21353151 59.43815993 -30 57 C-32.85364116 57 -33.82810448 58.58632895 -35.76536 60.50719738 Z M-195 189 C-199.17593826 201.82382733 -199.17593826 201.82382733 -202 215 C-193.05870856 213.55993623 -184.58894609 210.79194029 -176 208 C-179.86917681 203.27100612 -184.00302036 198.88730678 -188.3125 194.5625 C-188.85229492 194.01819336 -189.39208984 193.47388672 -189.94824219 192.91308594 C-192.11243544 190.22370013 -192.11243544 190.22370013 -195 189 Z " fill="#ffffff" transform="translate(479,212)"/>
<path d="M0 0 C1.30648477 -0.00576172 1.30648477 -0.00576172 2.63936317 -0.01163983 C4.09102998 -0.01034011 4.09102998 -0.01034011 5.57202339 -0.00901413 C7.10146212 -0.01347081 7.10146212 -0.01347081 8.6617986 -0.01801753 C12.10658258 -0.02674626 15.55133198 -0.02821628 18.99612617 -0.02970505 C21.45442976 -0.03433025 23.91273261 -0.0393545 26.37103462 -0.04475021 C33.06931166 -0.05790439 39.76757505 -0.06436123 46.4658618 -0.06876087 C50.64542678 -0.07152011 54.82498943 -0.07575688 59.00455284 -0.08026505 C70.56821421 -0.09246027 82.13187372 -0.10275904 93.69554138 -0.10614014 C94.43615439 -0.1063597 95.17676739 -0.10657927 95.93982322 -0.10680549 C96.68224574 -0.10702377 97.42466826 -0.10724204 98.18958843 -0.10746694 C99.69411143 -0.10791041 101.19863443 -0.10835697 102.70315742 -0.10880661 C103.82260932 -0.10913875 103.82260932 -0.10913875 104.9646764 -0.10947761 C117.06148494 -0.11342687 129.15823329 -0.13088363 141.25501858 -0.15416613 C153.6637333 -0.17785694 166.0724178 -0.19034095 178.48115551 -0.19150805 C185.45259827 -0.19242611 192.42396262 -0.19821095 199.39538383 -0.21632767 C205.95015492 -0.23330113 212.50480309 -0.2349983 219.05959892 -0.22618866 C221.47072943 -0.2254145 223.88186772 -0.22981037 226.29297829 -0.23964691 C229.57416246 -0.25225213 232.85480878 -0.24655202 236.13598824 -0.23606491 C237.09930467 -0.24412132 238.0626211 -0.25217772 239.05512893 -0.26047826 C240.36943694 -0.25059349 240.36943694 -0.25059349 241.71029663 -0.24050903 C242.46805606 -0.24110612 243.22581548 -0.24170321 244.00653732 -0.24231839 C246.56002182 0.24103342 247.41830355 1.08344305 248.98098946 3.13142776 C250.01707075 7.12774132 250.40795374 9.23868427 248.60598946 13.00642776 C246.98098946 15.13142776 246.98098946 15.13142776 245.98098946 16.13142776 C244.64426342 16.23041739 243.3023634 16.26064968 241.96197891 16.26285553 C240.65549414 16.26861725 240.65549414 16.26861725 239.32261574 16.27449536 C237.87094893 16.27319564 237.87094893 16.27319564 236.38995552 16.27186966 C235.3703297 16.27484078 234.35070389 16.2778119 233.30018032 16.28087306 C229.85539633 16.28960179 226.41064693 16.29107181 222.96585274 16.29256058 C220.50754916 16.29718578 218.0492463 16.30221003 215.59094429 16.30760574 C208.89266726 16.32075992 202.19440387 16.32721676 195.49611712 16.3316164 C191.31655214 16.33437564 187.13698948 16.33861241 182.95742607 16.34312057 C171.3937647 16.3553158 159.8301052 16.36561457 148.26643753 16.36899567 C147.52582452 16.36921523 146.78521152 16.3694348 146.02215569 16.36966102 C145.27973318 16.3698793 144.53731066 16.37009757 143.77239048 16.37032247 C142.26786748 16.37076594 140.76334449 16.3712125 139.25882149 16.37166214 C138.1393696 16.37199428 138.1393696 16.37199428 136.99730252 16.37233314 C124.90049397 16.3762824 112.80374562 16.39373916 100.70696034 16.41702166 C88.29824561 16.44071247 75.88956112 16.45319648 63.4808234 16.45436358 C56.50938064 16.45528164 49.53801629 16.46106648 42.56659508 16.4791832 C36.01182399 16.49615666 29.45717582 16.49785383 22.90237999 16.48904419 C20.49124949 16.48827003 18.08011119 16.4926659 15.66900063 16.50250244 C12.38781645 16.51510766 9.10717013 16.50940755 5.82599068 16.49892044 C4.38101603 16.51100505 4.38101603 16.51100505 2.90684998 16.52333379 C1.59254197 16.51344902 1.59254197 16.51344902 0.25168228 16.50336456 C-0.50607715 16.50396165 -1.26383657 16.50455874 -2.04455841 16.50517392 C-4.59804291 16.02182211 -5.45632464 15.17941248 -7.01901054 13.13142776 C-8.05509184 9.13511421 -8.44597483 7.02417126 -6.64401054 3.25642776 C-4.27278238 0.15559093 -3.86079028 0.00635364 0 0 Z " fill="#ffffff" transform="translate(71.01901054382324,271.8685722351074)"/>
<path d="M0 0 C0.8694975 -0.00384115 1.738995 -0.00768229 2.63484091 -0.01163983 C3.59581499 -0.01077335 4.55678907 -0.00990687 5.54688358 -0.00901413 C6.56328027 -0.01198525 7.57967696 -0.01495637 8.62687355 -0.01801753 C12.05473197 -0.0267341 15.48255559 -0.02821526 18.91042423 -0.02970505 C21.35902322 -0.03433106 23.80762149 -0.03935543 26.25621891 -0.04475021 C32.92344599 -0.05789553 39.59065936 -0.06435948 46.25789618 -0.06876087 C50.41853797 -0.07152136 54.57917741 -0.07575832 58.73981762 -0.08026505 C70.25290722 -0.09245816 81.76599496 -0.10275788 93.27909088 -0.10614014 C94.01620116 -0.1063597 94.75331143 -0.10657927 95.51275838 -0.10680549 C96.62110758 -0.10713291 96.62110758 -0.10713291 97.75184768 -0.10746694 C99.24920523 -0.10791041 100.74656278 -0.10835697 102.24392033 -0.10880661 C102.98666547 -0.10902804 103.72941061 -0.10924947 104.49466319 -0.10947761 C116.5364428 -0.11342771 128.57816197 -0.13088798 140.61991822 -0.15416613 C152.97442402 -0.17785672 165.32889946 -0.19034091 177.68342835 -0.19150805 C184.62355722 -0.19242603 191.56360733 -0.19820916 198.50371456 -0.21632767 C205.02813035 -0.23330063 211.55242264 -0.2349985 218.07686329 -0.22618866 C220.47670676 -0.22541451 222.87655806 -0.22981024 225.27638149 -0.23964691 C228.54218629 -0.25225229 231.80745072 -0.24655198 235.07325077 -0.23606491 C236.51136581 -0.24814952 236.51136581 -0.24814952 237.97853369 -0.26047826 C239.28669155 -0.25059349 239.28669155 -0.25059349 240.62127686 -0.24050903 C241.37545645 -0.24110612 242.12963604 -0.24170321 242.90666956 -0.24231839 C245.45459735 0.24183603 246.31321842 1.0883423 247.873559 3.13142776 C248.90964029 7.12774132 249.30052328 9.23868427 247.498559 13.00642776 C245.873559 15.13142776 245.873559 15.13142776 244.873559 16.13142776 C243.53683296 16.23041739 242.19493294 16.26064968 240.85454845 16.26285553 C239.54806369 16.26861725 239.54806369 16.26861725 238.21518528 16.27449536 C236.76351847 16.27319564 236.76351847 16.27319564 235.28252506 16.27186966 C234.26289925 16.27484078 233.24327343 16.2778119 232.19274986 16.28087306 C228.74796588 16.28960179 225.30321647 16.29107181 221.85842228 16.29256058 C219.4001187 16.29718578 216.94181584 16.30221003 214.48351383 16.30760574 C207.7852368 16.32075992 201.08697341 16.32721676 194.38868666 16.3316164 C190.20912168 16.33437564 186.02955902 16.33861241 181.84999561 16.34312057 C170.28633424 16.3553158 158.72267474 16.36561457 147.15900707 16.36899567 C146.41839407 16.36921523 145.67778106 16.3694348 144.91472524 16.36966102 C144.17230272 16.3698793 143.4298802 16.37009757 142.66496003 16.37032247 C141.16043703 16.37076594 139.65591403 16.3712125 138.15139103 16.37166214 C137.03193914 16.37199428 137.03193914 16.37199428 135.88987206 16.37233314 C123.79306351 16.3762824 111.69631516 16.39373916 99.59952988 16.41702166 C87.19081515 16.44071247 74.78213066 16.45319648 62.37339294 16.45436358 C55.40195018 16.45528164 48.43058583 16.46106648 41.45916462 16.4791832 C34.90439353 16.49615666 28.34974536 16.49785383 21.79494953 16.48904419 C19.38381903 16.48827003 16.97268073 16.4926659 14.56157017 16.50250244 C11.28038599 16.51510766 7.99973967 16.50940755 4.71856022 16.49892044 C3.27358557 16.51100505 3.27358557 16.51100505 1.79941952 16.52333379 C0.48511151 16.51344902 0.48511151 16.51344902 -0.85574818 16.50336456 C-1.6135076 16.50396165 -2.37126703 16.50455874 -3.15198886 16.50517392 C-5.70547337 16.02182211 -6.5637551 15.17941248 -8.126441 13.13142776 C-9.15381772 9.16868901 -9.53216569 7.02015803 -7.813941 3.25642776 C-5.35262019 0.15698674 -3.78799694 0.0062621 0 0 Z " fill="#ffffff" transform="translate(72.12644100189209,175.86857223510742)"/>
<path d="M0 0 C1.13407893 -0.00935994 1.13407893 -0.00935994 2.29106855 -0.01890898 C4.82623891 -0.03487278 7.36045228 -0.02222205 9.89562988 -0.00964355 C11.71237245 -0.01506319 13.52911063 -0.02218495 15.34584045 -0.03088379 C20.2817745 -0.04913899 25.21737461 -0.04204054 30.15331459 -0.02936745 C35.31510961 -0.01925116 40.47687575 -0.02862931 45.63867188 -0.03491211 C54.30754742 -0.04219251 62.97628673 -0.03259049 71.6451416 -0.0135498 C81.67224976 0.00821966 91.6990326 0.00116857 101.72613287 -0.02085543 C110.33005483 -0.03899822 118.93387876 -0.04157323 127.53781366 -0.03110075 C132.67882273 -0.02485966 137.81967882 -0.02404711 142.9606781 -0.0372467 C147.79362682 -0.04878826 152.62615549 -0.04081051 157.45905876 -0.01766968 C159.23441304 -0.01237351 161.00980257 -0.01391184 162.7851429 -0.02272034 C165.20563034 -0.03362396 167.62476518 -0.0199764 170.04516602 0 C171.1033344 -0.01338433 171.1033344 -0.01338433 172.18287992 -0.02703905 C175.5685951 0.02730003 177.2561674 0.29924163 179.95671844 2.41468048 C181.65616099 4.68650216 182.06633387 5.7078794 182.02258301 8.50793457 C182.03805176 9.49793457 182.03805176 9.49793457 182.05383301 10.50793457 C181.25937954 13.49881821 179.95249638 14.60449596 177.52258301 16.50793457 C174.89029213 16.9010832 172.6753583 17.04913735 170.04516602 17.01586914 C168.91108708 17.02522908 168.91108708 17.02522908 167.75409746 17.03477812 C165.2189271 17.05074192 162.68471374 17.03809119 160.14953613 17.0255127 C158.33279356 17.03093233 156.51605539 17.03805409 154.69932556 17.04675293 C149.76339151 17.06500813 144.82779141 17.05790969 139.89185143 17.04523659 C134.7300564 17.0351203 129.56829027 17.04449845 124.40649414 17.05078125 C115.73761859 17.05806165 107.06887929 17.04845963 98.40002441 17.02941895 C88.37291626 17.00764948 78.34613342 17.01470057 68.31903315 17.03672457 C59.71511119 17.05486736 51.11128725 17.05744237 42.50735235 17.04696989 C37.36634328 17.0407288 32.2254872 17.03991625 27.08448792 17.05311584 C22.2515392 17.0646574 17.41901052 17.05667965 12.58610725 17.03353882 C10.81075298 17.02824265 9.03536344 17.02978098 7.26002312 17.03858948 C4.83953568 17.04949311 2.42040084 17.03584554 0 17.01586914 C-1.05816839 17.02925347 -1.05816839 17.02925347 -2.13771391 17.04290819 C-5.52342908 16.98856911 -7.21100138 16.71662751 -9.91155243 14.60118866 C-11.61099497 12.32936699 -12.02116785 11.30798974 -11.97741699 8.50793457 C-11.99288574 7.51793457 -11.99288574 7.51793457 -12.00866699 6.50793457 C-10.37277698 0.34928981 -5.5336217 -0.06999247 0 0 Z " fill="#ffffff" transform="translate(139.4774169921875,223.4920654296875)"/>
<path d="M0 0 C0.75504934 -0.00297112 1.51009868 -0.00594224 2.2880283 -0.0090034 C4.83143932 -0.01771166 7.37480338 -0.01920043 9.91822815 -0.02069092 C11.73629355 -0.02531752 13.55435798 -0.03034197 15.37242126 -0.03573608 C20.32069319 -0.04887573 25.26895154 -0.05530788 30.21723819 -0.05974674 C33.30581836 -0.06267444 36.3943948 -0.06677863 39.4829731 -0.07125092 C49.13813652 -0.08492886 58.79329142 -0.09459453 68.44846386 -0.09845281 C79.60971721 -0.10293696 90.77084831 -0.12050016 101.93206447 -0.1494534 C110.54949269 -0.17103527 119.16688642 -0.18115518 127.78434139 -0.18249393 C132.93596119 -0.1835443 138.0874661 -0.18950153 143.23905754 -0.20731354 C148.08255294 -0.22373431 152.92584636 -0.22597906 157.76935959 -0.21717453 C159.54998247 -0.21640097 161.33061594 -0.22078852 163.11121178 -0.23063278 C165.53629919 -0.24325713 167.96066087 -0.23752806 170.38574219 -0.22705078 C171.09546486 -0.23510719 171.80518753 -0.24316359 172.53641695 -0.25146413 C175.364186 -0.22275883 177.2953507 -0.17690844 179.66233921 1.45247269 C181.50172973 4.29046837 181.64136003 6.80535828 181.75636292 10.14044189 C180.61985347 12.51677982 179.61195263 14.28485218 177.75636292 16.14044189 C175.35997622 16.24474786 172.99216186 16.28377362 170.59501648 16.28088379 C169.83673801 16.28385491 169.07845955 16.28682603 168.29720294 16.28988719 C165.73686642 16.29861184 163.17657644 16.3000856 160.6162262 16.30157471 C158.78845621 16.30620021 156.96068719 16.31122451 155.13291931 16.31661987 C150.15359743 16.32977147 145.17428904 16.33619416 140.19495249 16.34063053 C137.08744911 16.34355675 133.97994947 16.34766068 130.87244797 16.3521347 C121.15961604 16.36581675 111.44679259 16.37548001 101.73395169 16.3793366 C90.50363799 16.38381959 79.27344586 16.40137573 68.04316914 16.43033719 C59.3748061 16.45191951 50.70647736 16.46203902 42.03808773 16.46337771 C36.85515419 16.4644282 31.67233483 16.47038756 26.48942947 16.48819733 C21.61557901 16.50461856 16.74192926 16.50686261 11.86806107 16.49805832 C10.07615117 16.49728475 8.28423074 16.50167253 6.49234772 16.51151657 C4.0518816 16.52414058 1.61213669 16.51841197 -0.82832336 16.50793457 C-1.5426191 16.51599097 -2.25691484 16.52404738 -2.99285591 16.53234792 C-5.83008098 16.5037274 -7.77604748 16.46184892 -10.15240669 14.8284111 C-11.98774714 11.98941562 -12.12867153 9.474443 -12.24363708 6.14044189 C-9.37854653 -0.13547075 -6.35958553 -0.00773993 0 0 Z " fill="#ffffff" transform="translate(75.24363708496094,127.85955810546875)"/>
<path d="M0 0 C0.6897125 -0.00297112 1.379425 -0.00594224 2.09003788 -0.0090034 C4.41233739 -0.0177086 6.73458547 -0.01920017 9.05690002 -0.02069092 C10.71733206 -0.02531774 12.37776303 -0.03034222 14.03819275 -0.03573608 C18.55672628 -0.04887364 23.07524494 -0.05530747 27.59379458 -0.05974674 C30.41435939 -0.06267478 33.23492011 -0.06677903 36.05548286 -0.07125092 C44.87343466 -0.08492831 53.69137713 -0.09459425 62.5093388 -0.09845281 C72.7016285 -0.10293682 82.89378431 -0.12049957 93.08603328 -0.1494534 C100.95612186 -0.17103761 108.82617268 -0.18115531 116.69629055 -0.18249393 C121.40078405 -0.18354414 126.10515174 -0.18949781 130.80961418 -0.20731354 C135.23287818 -0.22373837 139.65592102 -0.2259771 144.07920456 -0.21717453 C145.70502246 -0.21640119 147.33085198 -0.22078572 148.95664024 -0.23063278 C151.1715556 -0.24326418 153.38567714 -0.23752448 155.60058594 -0.22705078 C156.84148704 -0.22851734 158.08238813 -0.2299839 159.3608923 -0.2314949 C162.36378479 0.14044189 162.36378479 0.14044189 164.23179722 1.45247269 C166.12590749 4.27688515 166.24826333 6.79031946 166.36378479 10.14044189 C165.22727535 12.51677982 164.2193745 14.28485218 162.36378479 16.14044189 C160.18109787 16.24401768 157.99499707 16.27567884 155.80986023 16.28088379 C155.1169186 16.28385491 154.42397697 16.28682603 153.71003711 16.28988719 C151.37081212 16.29861034 149.03163808 16.30008547 146.69239807 16.30157471 C145.02226145 16.30620033 143.35212589 16.31122463 141.68199158 16.31661987 C137.13240809 16.32977052 132.58283938 16.336194 128.03323984 16.34063053 C125.19375184 16.34355694 122.35426791 16.34766091 119.51478195 16.3521347 C110.63916165 16.3658166 101.76355062 16.37547989 92.8879205 16.3793366 C82.62657051 16.38381934 72.36535359 16.40137437 62.10404408 16.43033719 C54.18302069 16.45192188 46.26203482 16.46203915 38.34098232 16.46337771 C33.60517513 16.46442805 28.86949292 16.47038408 24.13371658 16.48819733 C19.68009759 16.50462263 15.22669825 16.50686065 10.77305984 16.49805832 C9.13595493 16.49728496 7.49883848 16.50166977 5.861763 16.51151657 C3.63146924 16.52414755 1.40196388 16.51840843 -0.82832336 16.50793457 C-2.07789762 16.50940113 -3.32747189 16.51086769 -4.61491203 16.51237869 C-7.63621521 16.14044189 -7.63621521 16.14044189 -9.50702095 14.8284111 C-11.39712539 12.00299991 -11.52073262 9.489437 -11.63621521 6.14044189 C-8.8485162 0.03405358 -6.3858201 0.01531261 0 0 Z " fill="#ffffff" transform="translate(74.63621520996094,367.85955810546875)"/>
<path d="M0 0 C1.29281891 -0.00571014 2.58563782 -0.01142029 3.91763306 -0.01730347 C5.36379995 -0.01854896 6.80996696 -0.01967402 8.25613403 -0.02069092 C9.76863731 -0.02531667 11.28113941 -0.030341 12.79364014 -0.03573608 C16.91348522 -0.04888559 21.03331399 -0.05531 25.15317678 -0.05974674 C27.72464946 -0.06267339 30.29611763 -0.06677741 32.86758804 -0.07125092 C40.90599672 -0.08493262 48.94439515 -0.09459595 56.98281467 -0.09845281 C66.27520199 -0.10293525 75.56744234 -0.12048894 84.85978496 -0.1494534 C92.03346876 -0.17104095 99.20711112 -0.18115552 106.38082707 -0.18249393 C110.66950884 -0.18354407 114.95805259 -0.18949608 119.24670029 -0.20731354 C123.280089 -0.22374378 127.31323519 -0.22597449 131.34664536 -0.21717453 C132.82894539 -0.21640143 134.31125819 -0.22078264 135.7935257 -0.23063278 C137.8133204 -0.24327014 139.83321169 -0.23571387 141.85302734 -0.22705078 C142.9846121 -0.22851734 144.11619686 -0.2299839 145.28207207 -0.2314949 C148.05349731 0.14044189 148.05349731 0.14044189 149.88633919 1.45247269 C151.83061695 4.26432904 151.9374766 6.77584126 152.05349731 10.14044189 C150.91698787 12.51677982 149.90908702 14.28485218 148.05349731 16.14044189 C146.0734686 16.2437186 144.08970807 16.27566824 142.10699463 16.28088379 C140.16776627 16.28944901 140.16776627 16.28944901 138.18936157 16.29818726 C136.74319468 16.29943275 135.29702767 16.30055781 133.8508606 16.30157471 C132.33835732 16.30620046 130.82585522 16.31122479 129.31335449 16.31661987 C125.19350941 16.32976938 121.07368064 16.33619379 116.95381784 16.34063053 C114.38234517 16.34355718 111.810877 16.3476612 109.23940659 16.3521347 C101.20099791 16.36581641 93.16259947 16.37547974 85.12417996 16.3793366 C75.83179264 16.38381904 66.53955229 16.40137273 57.24720967 16.43033719 C50.07352587 16.45192474 42.89988351 16.46203931 35.72616756 16.46337771 C31.43748579 16.46442786 27.14894204 16.47037987 22.86029434 16.48819733 C18.82690563 16.50462757 14.79375944 16.50685828 10.76034927 16.49805832 C9.27804924 16.49728522 7.79573644 16.50166643 6.31346893 16.51151657 C4.29367423 16.52415393 2.27378294 16.51659766 0.25396729 16.50793457 C-0.87761747 16.50940113 -2.00920223 16.51086769 -3.17507744 16.51237869 C-5.94650269 16.14044189 -5.94650269 16.14044189 -7.77934456 14.8284111 C-9.72362232 12.01655474 -9.83048197 9.50504253 -9.94650269 6.14044189 C-7.24135411 0.48422214 -6.10410786 0.01605692 0 0 Z " fill="#ffffff" transform="translate(72.94650268554688,319.85955810546875)"/>
<path d="M0 0 C1.09087921 -0.00571014 2.18175842 -0.01142029 3.30569458 -0.01730347 C4.51298218 -0.01842133 5.72026978 -0.01953918 6.96414185 -0.02069092 C8.85907883 -0.02813828 8.85907883 -0.02813828 10.79229736 -0.03573608 C14.26753482 -0.04888334 17.74275293 -0.0553096 21.21801138 -0.05974674 C23.38746115 -0.06267385 25.55690559 -0.06677797 27.72635269 -0.07125092 C34.50894391 -0.08493225 41.29152301 -0.09459567 48.07412708 -0.09845281 C55.9130732 -0.10293467 63.75184506 -0.1204857 71.59073818 -0.1494534 C77.64341272 -0.17104657 83.69603814 -0.18115582 89.74875081 -0.18249393 C93.36674699 -0.18354371 96.9845795 -0.1894878 100.60253525 -0.20731354 C104.6372414 -0.22680501 108.67158142 -0.22251475 112.70632935 -0.21600342 C113.90956848 -0.2252182 115.11280762 -0.23443298 116.35250854 -0.243927 C117.4490274 -0.23835785 118.54554626 -0.2327887 119.67529297 -0.22705078 C120.62989347 -0.22851734 121.58449398 -0.2299839 122.56802177 -0.2314949 C124.96463013 0.14044189 124.96463013 0.14044189 126.7405262 1.45247269 C128.76500655 4.24411514 128.8477625 6.75128082 128.96463013 10.14044189 C127.82812068 12.51677982 126.82021984 14.28485218 124.96463013 16.14044189 C123.28866403 16.2431347 121.60836143 16.27564735 119.92926025 16.28088379 C118.83838104 16.28659393 117.74750183 16.29230408 116.62356567 16.29818726 C115.41627808 16.29930511 114.20899048 16.30042297 112.96511841 16.30157471 C111.07018143 16.30902206 111.07018143 16.30902206 109.13696289 16.31661987 C105.66172544 16.32976713 102.18650732 16.33619339 98.71124887 16.34063053 C96.5417991 16.34355764 94.37235466 16.34766176 92.20290756 16.3521347 C85.42031634 16.36581604 78.63773725 16.37547946 71.85513318 16.3793366 C64.01618705 16.38381846 56.1774152 16.40136949 48.33852208 16.43033719 C42.28584754 16.45193036 36.23322211 16.46203961 30.18050945 16.46337771 C26.56251327 16.46442749 22.94468076 16.47037159 19.32672501 16.48819733 C15.29201886 16.5076888 11.25767883 16.50339854 7.22293091 16.49688721 C6.01969177 16.50610199 4.81645264 16.51531677 3.57675171 16.52481079 C2.48023285 16.51924164 1.38371399 16.51367249 0.25396729 16.50793457 C-0.70063322 16.50940113 -1.65523373 16.51086769 -2.63876152 16.51237869 C-5.03536987 16.14044189 -5.03536987 16.14044189 -6.81126595 14.8284111 C-8.8357463 12.03676864 -8.91850225 9.52960297 -9.03536987 6.14044189 C-6.55808762 0.96066991 -5.58218013 0.01740857 0 0 Z " fill="#ffffff" transform="translate(128.03536987304688,79.85955810546875)"/>
<path d="M0 0 C0.86354095 -0.0049649 1.72708191 -0.00992981 2.61679077 -0.01504517 C5.48094471 -0.02968209 8.34504329 -0.03647078 11.20922852 -0.04199219 C13.19458519 -0.04774169 15.17994184 -0.05349945 17.16529846 -0.05926514 C21.33074198 -0.06977901 25.49616617 -0.07561937 29.66162109 -0.07910156 C35.00632129 -0.08459186 40.35076743 -0.1086297 45.69538784 -0.13707352 C49.79682672 -0.15566967 53.89820399 -0.16090385 57.99968147 -0.16243744 C59.97051446 -0.16547055 61.94134621 -0.17352114 63.91213799 -0.18662262 C66.66558217 -0.2036226 69.41840005 -0.20181796 72.171875 -0.1953125 C72.99016281 -0.20452728 73.80845062 -0.21374207 74.65153503 -0.22323608 C80.21180002 -0.18195327 80.21180002 -0.18195327 82.32882786 1.4731636 C84.48815456 4.23065939 84.53220365 6.72663058 84.65063477 10.16113281 C83.51412532 12.53747074 82.50622448 14.3055431 80.65063477 16.16113281 C77.86686247 16.27230108 75.10766933 16.31852984 72.32299805 16.32226562 C71.44984955 16.32723053 70.57670105 16.33219543 69.67709351 16.33731079 C66.77503688 16.35197214 63.87303491 16.35874102 60.97094727 16.36425781 C58.9617411 16.37000603 56.95253497 16.3757638 54.94332886 16.38153076 C50.72483056 16.39205209 46.50635138 16.39788733 42.2878418 16.40136719 C36.87473291 16.40685406 31.46187531 16.4308815 26.04884529 16.45933914 C21.89679215 16.47793668 17.74479987 16.48316958 13.59270859 16.48470306 C11.59675599 16.48773669 9.60080465 16.49578898 7.60489273 16.50888824 C4.81541938 16.52588849 2.02656426 16.5240833 -0.76293945 16.51757812 C-2.00675385 16.5314003 -2.00675385 16.5314003 -3.2756958 16.54550171 C-8.90980721 16.50421331 -8.90980721 16.50421331 -11.03035164 14.84910202 C-13.18586887 12.09064166 -13.23098074 9.59428323 -13.34936523 6.16113281 C-10.30332685 -0.51114175 -6.71617348 0.00915229 0 0 Z " fill="#ffffff" transform="translate(140.349365234375,415.8388671875)"/>
<path d="M0 0 C1.38555588 -0.00855011 1.38555588 -0.00855011 2.79910278 -0.01727295 C4.75782113 -0.02673845 6.71655552 -0.03326306 8.67529297 -0.03710938 C11.67573798 -0.0468117 14.6754973 -0.07781901 17.67578125 -0.109375 C19.57551675 -0.11590502 21.47525717 -0.1211555 23.375 -0.125 C24.27507782 -0.1373468 25.17515564 -0.1496936 26.10250854 -0.16241455 C26.93992584 -0.15941345 27.77734314 -0.15641235 28.64013672 -0.15332031 C29.37658417 -0.15696594 30.11303162 -0.16061157 30.87179565 -0.16436768 C33.40960438 0.31426617 34.26407545 1.17134762 35.8203125 3.203125 C36.85639379 7.19943856 37.24727678 9.3103815 35.4453125 13.078125 C33.8203125 15.203125 33.8203125 15.203125 32.8203125 16.203125 C29.75289468 16.32916757 26.70924425 16.39182585 23.640625 16.40625 C22.25506912 16.41480011 22.25506912 16.41480011 20.84152222 16.42352295 C18.88280387 16.43298845 16.92406948 16.43951306 14.96533203 16.44335938 C11.96488702 16.4530617 8.9651277 16.48406901 5.96484375 16.515625 C4.06510825 16.52215502 2.16536783 16.5274055 0.265625 16.53125 C-0.63445282 16.5435968 -1.53453064 16.5559436 -2.46188354 16.56866455 C-3.29930084 16.56566345 -4.13671814 16.56266235 -4.99951172 16.55957031 C-5.73595917 16.56321594 -6.47240662 16.56686157 -7.23117065 16.57061768 C-9.76897938 16.09198383 -10.62345045 15.23490238 -12.1796875 13.203125 C-13.21576879 9.20681144 -13.60665178 7.0958685 -11.8046875 3.328125 C-8.54526538 -0.93419623 -5.0903353 0.0239273 0 0 Z " fill="#ffffff" transform="translate(252.1796875,319.796875)"/>
<path d="M0 0 C1.38555588 -0.00855011 1.38555588 -0.00855011 2.79910278 -0.01727295 C4.75782113 -0.02673845 6.71655552 -0.03326306 8.67529297 -0.03710938 C11.67573798 -0.0468117 14.6754973 -0.07781901 17.67578125 -0.109375 C19.57551675 -0.11590502 21.47525717 -0.1211555 23.375 -0.125 C24.27507782 -0.1373468 25.17515564 -0.1496936 26.10250854 -0.16241455 C26.93992584 -0.15941345 27.77734314 -0.15641235 28.64013672 -0.15332031 C29.37658417 -0.15696594 30.11303162 -0.16061157 30.87179565 -0.16436768 C33.40960438 0.31426617 34.26407545 1.17134762 35.8203125 3.203125 C36.85639379 7.19943856 37.24727678 9.3103815 35.4453125 13.078125 C33.8203125 15.203125 33.8203125 15.203125 32.8203125 16.203125 C29.75289468 16.32916757 26.70924425 16.39182585 23.640625 16.40625 C22.25506912 16.41480011 22.25506912 16.41480011 20.84152222 16.42352295 C18.88280387 16.43298845 16.92406948 16.43951306 14.96533203 16.44335938 C11.96488702 16.4530617 8.9651277 16.48406901 5.96484375 16.515625 C4.06510825 16.52215502 2.16536783 16.5274055 0.265625 16.53125 C-0.63445282 16.5435968 -1.53453064 16.5559436 -2.46188354 16.56866455 C-3.29930084 16.56566345 -4.13671814 16.56266235 -4.99951172 16.55957031 C-5.73595917 16.56321594 -6.47240662 16.56686157 -7.23117065 16.57061768 C-9.76897938 16.09198383 -10.62345045 15.23490238 -12.1796875 13.203125 C-13.21576879 9.20681144 -13.60665178 7.0958685 -11.8046875 3.328125 C-8.54526538 -0.93419623 -5.0903353 0.0239273 0 0 Z " fill="#ffffff" transform="translate(284.1796875,127.796875)"/>
<path d="M0 0 C1.35013939 -0.00855011 1.35013939 -0.00855011 2.72755432 -0.01727295 C4.63321759 -0.02672701 6.53889725 -0.03325854 8.44458008 -0.03710938 C11.36373275 -0.0468245 14.28218426 -0.07784767 17.20117188 -0.109375 C19.05077706 -0.11590402 20.90038729 -0.12115489 22.75 -0.125 C23.62506699 -0.1373468 24.50013397 -0.1496936 25.40171814 -0.16241455 C26.21588699 -0.15941345 27.03005585 -0.15641235 27.86889648 -0.15332031 C28.94239601 -0.15878876 28.94239601 -0.15878876 30.0375824 -0.16436768 C32.54234718 0.31912386 33.39941697 1.20036854 34.94140625 3.203125 C35.97748754 7.19943856 36.36837053 9.3103815 34.56640625 13.078125 C32.94140625 15.203125 32.94140625 15.203125 31.94140625 16.203125 C28.87398843 16.32916757 25.830338 16.39182585 22.76171875 16.40625 C21.37616287 16.41480011 21.37616287 16.41480011 19.96261597 16.42352295 C18.00389762 16.43298845 16.04516323 16.43951306 14.08642578 16.44335938 C11.08598077 16.4530617 8.08622145 16.48406901 5.0859375 16.515625 C3.186202 16.52215502 1.28646158 16.5274055 -0.61328125 16.53125 C-1.51335907 16.5435968 -2.41343689 16.5559436 -3.34078979 16.56866455 C-4.17820709 16.56566345 -5.01562439 16.56266235 -5.87841797 16.55957031 C-6.61486542 16.56321594 -7.35131287 16.56686157 -8.1100769 16.57061768 C-10.64788563 16.09198383 -11.5023567 15.23490238 -13.05859375 13.203125 C-14.08597046 9.24038624 -14.46431844 7.09185527 -12.74609375 3.328125 C-9.36565771 -0.92872038 -5.0286066 0.02436573 0 0 Z " fill="#ffffff" transform="translate(77.05859375,415.796875)"/>
<path d="M0 0 C0.89489136 -0.0038269 1.78978271 -0.00765381 2.71179199 -0.01159668 C4.60132982 -0.0143152 6.49090532 -0.00695816 8.38037109 0.00976562 C11.2713619 0.03117677 14.15986767 0.00996266 17.05078125 -0.015625 C18.88802631 -0.01298171 20.72526983 -0.00785671 22.5625 0 C23.85794739 -0.01214539 23.85794739 -0.01214539 25.17956543 -0.02453613 C31.16511043 0.06890871 31.16511043 0.06890871 34.32421875 2.43945312 C35.90083984 4.70293997 36.32391099 5.80094692 36.28125 8.53125 C36.2915625 9.19125 36.301875 9.85125 36.3125 10.53125 C35.49882247 13.5945066 34.32666824 14.62120882 31.78125 16.53125 C28.71145039 17.13447294 25.68294398 17.09175553 22.5625 17.0625 C21.22016296 17.06824036 21.22016296 17.06824036 19.85070801 17.07409668 C17.96117018 17.0768152 16.07159468 17.06945816 14.18212891 17.05273438 C11.2911381 17.03132323 8.40263233 17.05253734 5.51171875 17.078125 C3.67447369 17.07548171 1.83723017 17.07035671 0 17.0625 C-1.29544739 17.07464539 -1.29544739 17.07464539 -2.61706543 17.08703613 C-8.60261043 16.99359129 -8.60261043 16.99359129 -11.76171875 14.62304688 C-13.33833984 12.35956003 -13.76141099 11.26155308 -13.71875 8.53125 C-13.73421875 7.54125 -13.73421875 7.54125 -13.75 6.53125 C-11.88736251 -0.48103233 -6.00642315 -0.05631284 0 0 Z " fill="#ffffff" transform="translate(77.21875,223.46875)"/>
</svg>
