<?xml version="1.0" encoding="UTF-8"?>
<svg version="1.1" xmlns="http://www.w3.org/2000/svg" width="512" height="512">
<path d="M0 0 C1.37010397 1.0206135 2.72554612 2.06133128 4.0625 3.125 C4.67480469 3.56457031 5.28710938 4.00414062 5.91796875 4.45703125 C15.11952691 11.50546543 21.30798081 23.76239954 23.0625 35.125 C23.18032292 37.49789886 23.23760026 39.87421013 23.25 42.25 C23.25717041 42.91161133 23.26434082 43.57322266 23.27172852 44.25488281 C23.25916667 48.4093359 22.66606708 51.90808553 21.5 55.875 C20.7575083 59.40572978 20.7411713 60.60076842 22.65234375 63.71875 C24.22692186 65.54902883 25.83618465 67.34984436 27.47265625 69.125 C30.28005278 72.37700684 32.34187227 75.61169729 34.375 79.375 C34.98988281 80.49390625 35.60476563 81.6128125 36.23828125 82.765625 C42.90260655 97.72913284 42.64643522 112.45941008 42.58539867 128.58628058 C42.57626021 132.16509954 42.59036098 135.74384358 42.60131836 139.32264709 C42.61901537 146.31411215 42.61530324 153.30540451 42.6036678 160.29687607 C42.59459877 165.98385596 42.59342439 171.67078777 42.59776306 177.35777283 C42.59837599 178.1701412 42.59898893 178.98250957 42.59962043 179.81949517 C42.60089946 181.4703012 42.60219631 183.12110722 42.6035108 184.77191323 C42.61489076 200.21665092 42.6018436 215.66129333 42.58030933 231.10601538 C42.5624407 244.33065298 42.56554553 257.55515009 42.58398438 270.77978516 C42.60543691 286.1728822 42.61379236 301.56589593 42.60153532 316.95900583 C42.60026125 318.60341293 42.59900377 320.24782005 42.59776306 321.89222717 C42.59714596 322.7011042 42.59652886 323.50998124 42.59589306 324.34336969 C42.59245327 330.01717725 42.59823874 335.69093153 42.60768127 341.36473083 C42.61895151 348.28830968 42.61575645 355.21170736 42.5945583 362.13526571 C42.58411489 365.66129347 42.5798097 369.18702024 42.59315491 372.71304512 C42.66526053 397.826817 39.5787086 417.85840756 22.0625 437.125 C16.11715427 443.09568101 9.7477053 447.62890577 2.3125 451.5 C1.73032715 451.80977783 1.1481543 452.11955566 0.54833984 452.4387207 C-11.70788984 458.39818671 -24.9058103 459.71963157 -38.33203125 459.63293457 C-39.91836618 459.63755665 -41.50469681 459.64391825 -43.09101868 459.65184355 C-47.40230301 459.66838078 -51.71322844 459.66036255 -56.02451324 459.64789867 C-60.69263513 459.63878582 -65.36069861 459.65284859 -70.02880859 459.66381836 C-79.15475503 459.68154208 -88.28056937 459.67779111 -97.40652084 459.6661678 C-104.82782825 459.65710945 -112.2490988 459.65591983 -119.67041016 459.66026306 C-120.72936147 459.66087599 -121.78831278 459.66148893 -122.87935352 459.66212043 C-125.03104529 459.66339942 -127.18273704 459.66469627 -129.33442879 459.6660108 C-149.4789731 459.67739859 -169.62344442 459.6643312 -189.76797676 459.64280933 C-207.02764603 459.62494 -224.28720767 459.62804462 -241.546875 459.64648438 C-261.62265289 459.66792295 -281.69836692 459.67630012 -301.77415466 459.66403532 C-303.91763305 459.66276121 -306.06111144 459.66150373 -308.20458984 459.66026306 C-309.25903699 459.65964596 -310.31348413 459.65902886 -311.39988422 459.65839306 C-318.80648147 459.65494911 -326.21303797 459.66074783 -333.61962891 459.67018127 C-342.65410048 459.68143588 -351.68843315 459.67828871 -360.72288895 459.6570583 C-365.32646573 459.64659432 -369.9298115 459.64234602 -374.53338623 459.65565491 C-378.75764444 459.66768189 -382.98146018 459.66084898 -387.20567894 459.6397447 C-388.72364051 459.63532184 -390.24164043 459.6374461 -391.7595768 459.64724785 C-405.07066952 459.72652466 -418.36232498 457.79731624 -430.25 451.4375 C-430.90750244 451.09501221 -431.56500488 450.75252441 -432.24243164 450.3996582 C-449.70787506 440.97288182 -462.03323092 424.92259979 -468.01916504 406.13659668 C-471.23713046 394.62243818 -470.50523118 382.50921208 -470.46039867 370.66371942 C-470.45126021 367.08490046 -470.46536098 363.50615642 -470.47631836 359.92735291 C-470.49401537 352.93588785 -470.49030324 345.94459549 -470.4786678 338.95312393 C-470.46959877 333.26614404 -470.46842439 327.57921223 -470.47276306 321.89222717 C-470.47337599 321.0798588 -470.47398893 320.26749043 -470.47462043 319.43050483 C-470.47589946 317.7796988 -470.47719631 316.12889278 -470.4785108 314.47808677 C-470.48989076 299.03334908 -470.4768436 283.58870667 -470.45530933 268.14398462 C-470.4374407 254.91934702 -470.44054553 241.69484991 -470.45898438 228.47021484 C-470.48043691 213.0771178 -470.48879236 197.68410407 -470.47653532 182.29099417 C-470.47526125 180.64658707 -470.47400377 179.00217995 -470.47276306 177.35777283 C-470.47214596 176.5488958 -470.47152886 175.74001876 -470.47089306 174.90663031 C-470.46745327 169.23282275 -470.47323874 163.55906847 -470.48268127 157.88526917 C-470.49395151 150.96169032 -470.49075645 144.03829264 -470.4695583 137.11473429 C-470.45911489 133.58870653 -470.4548097 130.06297976 -470.46815491 126.53695488 C-470.54126109 101.07469583 -467.30692278 80.16909273 -448.9375 61.125 C-432.35454504 45.68946531 -413.40159573 39.90809467 -391.21112061 40.05426025 C-389.23583478 40.06077162 -387.26054894 40.06728162 -385.28526296 40.07374613 C-383.14944455 40.08171041 -381.0136515 40.09218679 -378.87784767 40.10337639 C-374.29910881 40.12723753 -369.72036062 40.14389464 -365.1415863 40.15925598 C-363.53761144 40.16470234 -361.93363662 40.17016085 -360.32966185 40.17563105 C-359.52128431 40.17838472 -358.71290678 40.1811384 -357.88003296 40.18397552 C-355.36782469 40.19280046 -352.85561984 40.20231414 -350.34341478 40.21200705 C-338.11438273 40.25860373 -325.88542337 40.28375869 -313.65631104 40.29608154 C-312.77117025 40.29700362 -311.88602946 40.2979257 -310.97406623 40.29887572 C-302.75708752 40.30730801 -294.54010782 40.31437155 -286.32312727 40.32073832 C-280.69246809 40.32518932 -275.0618101 40.3304349 -269.43115234 40.33642578 C-268.02835275 40.33790316 -268.02835275 40.33790316 -266.59721377 40.33941039 C-251.44410684 40.35667164 -236.29144582 40.41690227 -221.13852867 40.49204543 C-205.56997756 40.56818286 -190.00189055 40.59482209 -174.43316197 40.57651305 C-164.83610392 40.56684737 -155.24078411 40.59605035 -145.64404282 40.67546514 C-139.06435622 40.72628337 -132.48572702 40.72921513 -125.90593854 40.69483492 C-122.11207515 40.67643775 -118.32131362 40.67889621 -114.52780724 40.73858833 C-98.78986683 41.79945517 -98.78986683 41.79945517 -84.81012726 36.32698822 C-81.8598733 33.23689344 -79.95626112 29.87332162 -77.9375 26.125 C-76.43360098 24.19906961 -74.89706991 22.29762321 -73.3125 20.4375 C-72.58675781 19.55191406 -71.86101562 18.66632812 -71.11328125 17.75390625 C-53.41707254 -3.62768884 -26.26648909 -16.86024638 0 0 Z M-62.30908203 32.18212891 C-63.83101163 33.99794836 -65.36382153 35.80370326 -66.90234375 37.60546875 C-71.8845239 43.4475088 -76.77805428 49.35768097 -81.625 55.3125 C-84.66117366 59.00514364 -87.7559997 62.64621788 -90.8515625 66.2890625 C-94.49136512 70.57955609 -98.05721561 74.92637976 -101.60546875 79.29296875 C-103.32015428 81.37529205 -105.04851857 83.43805827 -106.80078125 85.48828125 C-107.290625 86.06191406 -107.78046875 86.63554688 -108.28515625 87.2265625 C-109.2315015 88.33189376 -110.1805378 89.43492927 -111.1328125 90.53515625 C-114.06287517 93.95788433 -116.40717093 97.32950639 -118.9375 101.125 C-107.7175 112.345 -96.4975 123.565 -84.9375 135.125 C-79.63116802 131.14525102 -74.5755824 127.18360481 -69.625 122.8125 C-64.38708498 118.22948678 -59.08835069 113.74868617 -53.6796875 109.3671875 C-50.56749852 106.82246317 -47.50023503 104.22881775 -44.4375 101.625 C-40.46850848 98.25211398 -36.4773282 94.91323226 -32.4375 91.625 C-27.88925602 87.92048824 -23.38789829 84.16567541 -18.92944336 80.35375977 C-16.13291502 77.96498062 -13.31590026 75.61689384 -10.43359375 73.33203125 C-1.87527844 66.47911182 5.09190341 59.35740054 7.0625 48.125 C8.07517213 38.0457477 5.80398338 29.59214676 -0.0625 21.3125 C-6.06164259 14.12897733 -14.37560725 9.72238426 -23.68359375 8.875 C-41.84280295 8.13475198 -51.52639585 19.30620403 -62.30908203 32.18212891 Z M-438.9375 75.125 C-439.50210937 75.66640625 -440.06671875 76.2078125 -440.6484375 76.765625 C-455.42310078 92.24384368 -455.10728182 113.38034683 -455 133.3125 C-454.99497294 134.94856633 -454.99041217 136.58463417 -454.98632812 138.22070312 C-454.97542277 142.18883986 -454.9582253 146.15690291 -454.9375 150.125 C-424.56773256 150.51323263 -394.19822258 150.81387597 -363.82653908 150.9931106 C-360.23689437 151.01437134 -356.64725457 151.03637494 -353.05761719 151.05883789 C-351.98571746 151.06552681 -351.98571746 151.06552681 -350.89216319 151.07235085 C-339.33735366 151.14622528 -327.78398924 151.28020289 -316.23003563 151.43659753 C-304.36493776 151.59585828 -292.50059395 151.69005712 -280.63447118 151.72450441 C-273.97290547 151.74569274 -267.31396861 151.79854745 -260.65328217 151.92241096 C-254.37802155 152.0381572 -248.10736532 152.07333437 -241.83113861 152.04783058 C-239.53319219 152.05249271 -237.23508572 152.08612193 -234.93806458 152.15149307 C-223.26630553 152.82601585 -223.26630553 152.82601585 -212.87345219 148.47674251 C-209.21486879 144.48121893 -206.61895457 140.03734285 -204.12871408 135.25303638 C-191.901146 113.40917972 -167.9774846 103.8750144 -145.36962891 96.79418945 C-142.97061978 96.13411276 -140.60420612 95.71333219 -138.15234375 95.30078125 C-133.54154701 94.31749603 -131.18132442 91.89998405 -128.4375 88.1875 C-127.97666016 87.60484375 -127.51582031 87.0221875 -127.04101562 86.421875 C-126.1016761 85.23247682 -125.17119437 84.03602595 -124.25 82.83251953 C-122.3679688 80.38405855 -120.40227822 78.00729359 -118.4375 75.625 C-117.37208984 74.31402344 -117.37208984 74.31402344 -116.28515625 72.9765625 C-113.03817823 69.03264577 -109.7231346 65.1472406 -106.390625 61.27539062 C-104.00206902 58.99159823 -104.00206902 58.99159823 -102.9375 56.125 C-140.90037651 56.03334279 -178.86323628 55.96290972 -216.82620114 55.92073868 C-221.31325212 55.91573616 -225.80030287 55.91055884 -230.28735352 55.90527344 C-231.18060329 55.9042242 -232.07385307 55.90317495 -232.99417102 55.90209392 C-247.43675814 55.88471281 -261.87928125 55.85318783 -276.32183046 55.81638882 C-291.15331165 55.77891542 -305.98475944 55.75675065 -320.81628603 55.74864602 C-329.96006468 55.74317149 -339.10366235 55.72591268 -348.24738526 55.69333413 C-354.52691562 55.67210715 -360.80635311 55.66581837 -367.08591671 55.67099449 C-370.70299986 55.67354362 -374.31976789 55.66977769 -377.93679428 55.6481781 C-402.29275703 55.51006626 -420.89497041 57.14622494 -438.9375 75.125 Z M10.0625 76.125 C9.39605469 76.74246094 8.72960937 77.35992187 8.04296875 77.99609375 C2.45569853 83.13013086 -3.21093971 88.07806602 -9.13671875 92.82421875 C-10.52310547 93.96310547 -10.52310547 93.96310547 -11.9375 95.125 C-12.59873367 95.57471161 -13.25996735 96.02442322 -13.9412384 96.48776245 C-17.12469625 98.84547006 -19.55028776 100.68167687 -20.60282898 104.60499573 C-20.76592047 107.54230629 -20.68293231 110.37244563 -20.5 113.30859375 C-20.46648437 114.36409927 -20.43296875 115.4196048 -20.3984375 116.50709534 C-20.28313116 119.86164946 -20.11119804 123.2105128 -19.9375 126.5625 C-19.84911146 128.84295658 -19.76443496 131.12356027 -19.68359375 133.40429688 C-19.48475177 138.98201721 -19.20942285 144.54845716 -18.9375 150.125 C-3.7575 150.125 11.4225 150.125 27.0625 150.125 C27.10375 144.659375 27.145 139.19375 27.1875 133.5625 C27.20570801 131.87181396 27.22391602 130.18112793 27.24267578 128.43920898 C27.35824344 110.14960982 25.93237264 91.39774976 13.0625 77.125 C12.0725 76.795 11.0825 76.465 10.0625 76.125 Z M-180.7578125 131.83984375 C-181.47710937 132.59394531 -182.19640625 133.34804687 -182.9375 134.125 C-183.65679687 134.84816406 -184.37609375 135.57132813 -185.1171875 136.31640625 C-190.49245467 141.96904486 -194.92940856 148.17251988 -199.33081055 154.58813477 C-202.25885706 158.83743589 -205.32002317 162.85673109 -208.64868164 166.79882812 C-214.60164608 173.86908621 -214.60164608 173.86908621 -216.34375 182.74609375 C-215.17306442 189.60135836 -213.20944114 194.56468058 -207.63012695 198.94897461 C-204.84916276 200.88116911 -201.88738281 202.35927706 -198.8125 203.75 C-198.15435303 204.04922363 -197.49620605 204.34844727 -196.81811523 204.65673828 C-178.79185063 212.61072119 -159.34672493 212.94772458 -140.83984375 206.30859375 C-120.99408884 198.21537203 -106.64801139 182.65940589 -98.09130859 163.20068359 C-94.428964 155.34565718 -94.428964 155.34565718 -94.9375 147.125 C-96.43975356 145.16319695 -96.43975356 145.16319695 -98.3840332 143.27441406 C-99.11181473 142.53394836 -99.83959625 141.79348267 -100.58943176 141.03057861 C-101.77686226 139.84755157 -101.77686226 139.84755157 -102.98828125 138.640625 C-103.79863327 137.82503113 -104.60898529 137.00943726 -105.44389343 136.16912842 C-107.15924815 134.44735007 -108.87849804 132.72944492 -110.60131836 131.01513672 C-113.24147641 128.38349609 -115.86244492 125.73374611 -118.48242188 123.08203125 C-120.14991008 121.41293124 -121.81849361 119.74492462 -123.48828125 118.078125 C-124.27382889 117.28134338 -125.05937653 116.48456177 -125.86872864 115.66363525 C-126.97458565 114.57184967 -126.97458565 114.57184967 -128.1027832 113.45800781 C-129.07088676 112.4901535 -129.07088676 112.4901535 -130.05854797 111.50274658 C-141.51846882 103.09972907 -172.53001394 123.76441183 -180.7578125 131.83984375 Z M-41.6875 119.9375 C-42.87757616 120.95185578 -44.06768112 121.96617776 -45.2578125 122.98046875 C-45.86915039 123.50302246 -46.48048828 124.02557617 -47.11035156 124.56396484 C-49.92198526 126.96610085 -52.74109498 129.35935357 -55.5625 131.75 C-56.09641357 132.20294434 -56.63032715 132.65588867 -57.18041992 133.12255859 C-61.60153962 136.86366125 -66.08505357 140.521904 -70.59765625 144.15234375 C-72.81742234 146.02376591 -74.88450434 148.07200434 -76.9375 150.125 C-63.0775 150.125 -49.2175 150.125 -34.9375 150.125 C-34.9375 138.575 -34.9375 127.025 -34.9375 115.125 C-37.28425585 115.125 -39.90455256 118.40640732 -41.6875 119.9375 Z M-454.9375 166.125 C-454.97875 201.97125 -455.02 237.8175 -455.0625 274.75 C-455.08070801 286.05588379 -455.09891602 297.36176758 -455.11767578 309.01025391 C-455.1243659 319.17155396 -455.1243659 319.17155396 -455.12838745 329.33285522 C-455.13024581 333.84809344 -455.13772119 338.36328432 -455.14865112 342.87850952 C-455.16243473 348.64963297 -455.16647021 354.4206882 -455.16364455 360.19182658 C-455.16423486 362.30253187 -455.16816179 364.41323971 -455.17593026 366.52393079 C-455.24735271 386.88600517 -453.99251307 403.9549011 -441.9375 421.125 C-441.215625 422.15625 -440.49375 423.1875 -439.75 424.25 C-430.04919239 435.18718505 -415.61660555 442.37584082 -401.02897763 443.3115679 C-397.6241447 443.38496642 -394.22437448 443.39635563 -390.8187561 443.38569641 C-388.8648834 443.39143473 -388.8648834 443.39143473 -386.87153852 443.39728898 C-383.27597673 443.40753305 -379.68051506 443.40539638 -376.0849452 443.40110838 C-372.19936529 443.39863461 -368.31380907 443.40766338 -364.42823792 443.41514587 C-356.82372085 443.42787677 -349.21923913 443.42968858 -341.61471321 443.42734561 C-335.43176094 443.42556051 -329.24881937 443.4273162 -323.06586838 443.43157005 C-322.1849235 443.43216524 -321.30397863 443.43276043 -320.39633846 443.43337366 C-318.6065323 443.43458544 -316.81672615 443.43579958 -315.02692001 443.43701603 C-298.25278297 443.44788534 -281.47866606 443.44573194 -264.7045279 443.43963119 C-249.37067191 443.4344624 -234.03687945 443.44571754 -218.70303603 443.46472941 C-202.94466904 443.48411731 -187.18633211 443.49236214 -171.42795312 443.48860615 C-162.58626169 443.48669558 -153.74462434 443.48916769 -144.90294266 443.50332069 C-137.37601072 443.51524759 -129.84916615 443.5166247 -122.32223298 443.50453053 C-118.48489597 443.49865106 -114.64771865 443.49751646 -110.81039238 443.50953293 C-106.6435394 443.52242925 -102.47706478 443.51190523 -98.31021118 443.4992218 C-97.10717901 443.50659609 -95.90414684 443.51397037 -94.66465914 443.52156812 C-78.55910273 443.41863261 -63.73590471 437.72893191 -52.11328125 426.4296875 C-40.50860309 414.13747904 -34.582233 400.30722122 -34.69699097 383.4249115 C-34.69528212 382.49025529 -34.69357327 381.55559908 -34.69181263 380.59261996 C-34.68853743 377.48346045 -34.69948885 374.37452025 -34.71044922 371.26538086 C-34.71101376 369.02762863 -34.71069594 366.78987604 -34.70956421 364.55212402 C-34.70899137 358.49290023 -34.72073468 352.43375593 -34.73471212 346.37455058 C-34.74723084 340.03645276 -34.74839089 333.69835303 -34.75076294 327.36024475 C-34.75626903 316.72720811 -34.76875391 306.0942028 -34.78662109 295.46118164 C-34.80499929 284.5126154 -34.81914629 273.56405708 -34.82763672 262.61547852 C-34.82816217 261.93979503 -34.82868761 261.26411155 -34.82922898 260.5679528 C-34.83183919 257.17800439 -34.83436658 253.78805592 -34.83685279 250.39810741 C-34.857562 222.30704681 -34.89441915 194.21603569 -34.9375 166.125 C-50.7775 166.125 -66.6175 166.125 -82.9375 166.125 C-85.5775 171.735 -88.2175 177.345 -90.9375 183.125 C-93.53258913 187.03822964 -95.97771484 190.54506938 -98.9375 194.125 C-99.62457031 194.97449219 -100.31164062 195.82398438 -101.01953125 196.69921875 C-115.60874314 213.86454373 -136.41564205 223.76949055 -158.7109375 225.8671875 C-179.87622377 227.39518907 -203.17089677 222.5059804 -220.125 209.125 C-226.66436106 202.73930538 -229.72808924 195.12475937 -230.9375 186.125 C-230.99475311 178.97654074 -229.91020162 173.02945568 -227.9375 166.125 C-302.8475 166.125 -377.7575 166.125 -454.9375 166.125 Z M-18.9375 166.125 C-18.9468457 172.942771 -18.95619141 179.76054199 -18.96582031 186.78491211 C-18.99859974 208.65480785 -19.05093496 230.52462251 -19.11542095 252.39444702 C-19.12543717 255.79738808 -19.13528151 259.20032962 -19.14501953 262.60327148 C-19.1469609 263.28067238 -19.14890228 263.95807327 -19.15090248 264.65600146 C-19.18183621 275.59234129 -19.19887893 286.52866019 -19.21069422 297.46503549 C-19.22315069 308.70540771 -19.25104606 319.94567167 -19.29211307 331.18598181 C-19.31467018 337.49166448 -19.33041413 343.79719203 -19.32938385 350.10291862 C-19.32863385 356.04963612 -19.34672095 361.99601143 -19.37866783 367.9426403 C-19.38712001 370.11404863 -19.38894898 372.28549556 -19.38330269 374.45691299 C-19.3286173 398.73989939 -23.49918847 419.1603824 -41 437.2578125 C-42.21544785 438.46835935 -43.4429744 439.66702371 -44.6875 440.84765625 C-46.05406926 441.94625146 -46.05406926 441.94625146 -45.9375 443.125 C-25.56908221 443.85074875 -9.31614773 442.14204239 7.25 429 C20.28989999 416.82942668 26.34903083 400.3792151 27.17095804 382.80612993 C27.35041496 376.3489481 27.31338329 369.89110401 27.28955078 363.43212891 C27.28898564 361.27245591 27.28930523 359.11278252 27.29043579 356.95310974 C27.2910063 351.12971011 27.27930112 345.30639397 27.26528788 339.48301363 C27.25272993 333.38250948 27.25160604 327.28200312 27.24923706 321.18148804 C27.24303712 309.6469554 27.2266465 298.11246097 27.20653808 286.57794511 C27.18413271 273.43881895 27.17317401 260.29969089 27.16314721 247.16055036 C27.14227889 220.14867422 27.10562131 193.13685041 27.0625 166.125 C11.8825 166.125 -3.2975 166.125 -18.9375 166.125 Z " fill="#ffffff" transform="translate(469.9375,29.875)"/>
<path d="M0 0 C1.75251261 0.00052 3.5050258 -0.00000311 5.25753784 -0.00151062 C8.9102258 -0.00142146 12.56269046 0.00889366 16.21533203 0.02709961 C20.87298455 0.04981837 25.5303127 0.05031853 30.18800545 0.04358196 C33.7999047 0.04022498 37.41173136 0.04690396 41.02361679 0.0567112 C42.7402394 0.06053116 44.45687013 0.06172488 46.17349625 0.06012535 C60.63778577 0.05787052 73.3817135 0.32176505 84.4921875 10.67578125 C91.85551253 18.5504483 93.98947974 28.31522487 93.9543457 38.82373047 C93.95945663 39.62813568 93.96456757 40.43254089 93.96983337 41.26132202 C93.98363197 43.89694851 93.98277993 46.53231063 93.98046875 49.16796875 C93.98436114 51.01588028 93.98869692 52.86379093 93.99345398 54.71170044 C94.00089537 58.5765473 94.00064013 62.44130278 93.99536133 66.30615234 C93.98957074 71.2374959 94.00649795 76.16846336 94.029706 81.0997448 C94.04450046 84.91409459 94.04530727 88.72835501 94.04219627 92.54272842 C94.04270666 94.35984161 94.04789077 96.17696017 94.05800819 97.99404526 C94.12842842 112.40951563 93.21566885 123.96951746 83.0859375 135.1171875 C72.80126427 144.79545311 60.36230877 143.95742853 47.1484375 143.89453125 C45.14644177 143.89723026 43.14444733 143.90111607 41.14245605 143.90612793 C36.95991454 143.91200373 32.77771625 143.90352204 28.59521484 143.88476562 C23.25575179 143.86197741 17.91709321 143.8751108 12.57765961 143.89905548 C8.44759143 143.91356542 4.31771143 143.9088837 0.18763733 143.89854431 C-1.78018796 143.89589137 -3.74803079 143.89909588 -5.71583557 143.90846252 C-19.01924225 143.9579017 -29.53111851 143.6965201 -39.640625 134.07421875 C-50.31429465 123.2019692 -49.92075774 111.42110824 -49.8515625 97.05078125 C-49.85426159 95.07120575 -49.85814748 93.09163154 -49.86315918 91.11206055 C-49.86903457 86.97659602 -49.86055465 82.84147865 -49.84179688 78.70605469 C-49.81900865 73.42712261 -49.83214228 68.14900422 -49.85608673 62.87010193 C-49.87059781 58.78635621 -49.86591444 54.70280078 -49.85557556 50.61904907 C-49.85292293 48.67355247 -49.85612602 46.72803812 -49.86549377 44.78256226 C-49.91671968 31.15647121 -49.27036391 19.71400587 -39.3203125 9.36328125 C-28.10152938 -0.47266976 -14.06109691 -0.08320619 0 0 Z M-28.1328125 21.67578125 C-32.57119712 27.12865378 -33.76428388 31.72914879 -33.70849609 38.66015625 C-33.71375305 39.47069458 -33.71901001 40.28123291 -33.72442627 41.11633301 C-33.73757577 43.78218137 -33.72890625 46.44742734 -33.71875 49.11328125 C-33.72077219 50.97363397 -33.72368484 52.83398592 -33.72744751 54.69433594 C-33.73186402 58.58796761 -33.72546148 62.48139242 -33.71142578 66.375 C-33.69433432 71.35838285 -33.7041791 76.34128092 -33.72214317 81.324646 C-33.73299919 85.16458773 -33.72952632 89.00441511 -33.7217598 92.84436035 C-33.71976282 94.68151914 -33.72219938 96.51868842 -33.72919846 98.35583496 C-33.7368429 100.92630398 -33.72516717 103.49599496 -33.70849609 106.06640625 C-33.71456879 106.82087036 -33.72064148 107.57533447 -33.72689819 108.35266113 C-33.65979951 113.95540118 -32.43076024 118.07536405 -28.6015625 122.2265625 C-27.71984375 122.94392578 -27.71984375 122.94392578 -26.8203125 123.67578125 C-26.2325 124.16691406 -25.6446875 124.65804687 -25.0390625 125.1640625 C-21.10035786 127.91220414 -16.88197596 127.52430383 -12.28808594 127.5402832 C-11.06071465 127.55014 -11.06071465 127.55014 -9.80854797 127.56019592 C-7.09892687 127.57991621 -4.38936118 127.59158913 -1.6796875 127.6015625 C-0.29026821 127.60767579 -0.29026821 127.60767579 1.12722015 127.61391258 C6.03061195 127.63476862 10.9339758 127.64907196 15.83740234 127.65844727 C20.89591124 127.66950644 25.95397963 127.70390202 31.01233292 127.74361897 C34.90719406 127.76979509 38.80195042 127.77814002 42.69689178 127.78172874 C44.56116458 127.78659267 46.42543275 127.79820115 48.28961945 127.81676674 C50.90339309 127.841178 53.51602949 127.84018965 56.12988281 127.83325195 C56.89481552 127.84606201 57.65974823 127.85887207 58.44786072 127.87207031 C63.95101161 127.81903299 67.12289546 126.46797979 71.6796875 123.36328125 C77.0950223 117.80158605 77.97964429 111.89807762 77.97021484 104.37353516 C77.97693207 103.59547012 77.98364929 102.81740509 77.99057007 102.01576233 C78.00948619 99.45705691 78.01347091 96.89861464 78.015625 94.33984375 C78.02205701 92.55154312 78.02878567 90.76324353 78.03579712 88.97494507 C78.04775365 85.23099326 78.05147958 81.48713361 78.05029297 77.74316406 C78.05008979 72.95943942 78.07739793 68.17630891 78.11183739 63.39272499 C78.13413713 59.70025956 78.13812958 56.00793648 78.13707352 52.31541061 C78.13942461 50.55245287 78.14822031 48.7894909 78.16373825 47.02659988 C78.18346262 44.55458871 78.17753594 42.08385063 78.16552734 39.61181641 C78.17676636 38.89259506 78.18800537 38.17337372 78.19958496 37.43235779 C78.12659681 31.48233361 76.32437729 26.30995306 72.30316734 21.82958412 C66.78405137 16.88937345 61.0279741 16.06346647 53.87353516 16.08862305 C53.11497726 16.08351212 52.35641937 16.07840118 51.57487488 16.07313538 C49.08108507 16.05929859 46.58757351 16.06019179 44.09375 16.0625 C42.3502899 16.05860957 40.60683075 16.05427418 38.8633728 16.04951477 C35.21357142 16.04206508 31.56386678 16.04233456 27.9140625 16.04760742 C23.25149662 16.05339766 18.58932854 16.03647582 13.92682838 16.01326275 C10.32701323 15.9984848 6.72729297 15.99765927 3.12745285 16.00077248 C1.40916532 16.00026122 -0.30912779 15.99506033 -2.02738571 15.98496056 C-4.43697217 15.97253549 -6.84579559 15.97942371 -9.25537109 15.9909668 C-9.95589096 15.98332306 -10.65641083 15.97567932 -11.37815857 15.96780396 C-17.83939709 16.03574717 -23.15278211 17.5810896 -28.1328125 21.67578125 Z " fill="#ffffff" transform="translate(110.3203125,275.63671875)"/>
<path d="M0 0 C1.6158197 -0.00503792 1.6158197 -0.00503792 3.26428223 -0.01017761 C6.81975463 -0.01966376 10.3751798 -0.02162964 13.93066406 -0.02270508 C16.40920023 -0.02591957 18.8877362 -0.02928379 21.36627197 -0.03279114 C26.56124308 -0.03877677 31.75619756 -0.04063165 36.95117188 -0.04003906 C43.59312061 -0.03993754 50.23495949 -0.05358207 56.87688828 -0.07081127 C61.99685145 -0.08195547 67.11678894 -0.08395751 72.236763 -0.08342934 C74.68465799 -0.08460609 77.13255371 -0.08901074 79.58043671 -0.0967617 C83.01203306 -0.10660913 86.44339958 -0.10366458 89.875 -0.09765625 C90.87690369 -0.10327576 91.87880737 -0.10889526 92.91107178 -0.11468506 C103.9539574 -0.06579728 112.92536565 1.35835299 121.19628906 9.14526367 C127.53464323 17.51497678 129.08106308 24.75878605 128.19628906 35.14526367 C126.49225543 42.72115842 122.50330286 48.61055045 116.19628906 53.14526367 C109.19642871 57.192848 102.99746443 57.72132204 95.02636719 57.6628418 C93.8398204 57.66985107 92.65327362 57.67686035 91.43077087 57.68408203 C88.20123865 57.69859192 84.97237064 57.69530244 81.74284935 57.68256569 C78.34779951 57.67237029 74.95279101 57.68184938 71.55773926 57.68811035 C65.8585627 57.69536789 60.15959413 57.68584916 54.46044922 57.66674805 C47.89092034 57.6449827 41.32188817 57.65203544 34.75237131 57.67405367 C29.09090659 57.69226204 23.42959056 57.6947396 17.76810598 57.68429899 C14.39594486 57.67809373 11.02401648 57.6771457 7.65187073 57.69044495 C3.88964595 57.70063996 0.12836565 57.68506594 -3.63378906 57.6628418 C-4.73743301 57.67093872 -5.84107697 57.67903564 -6.97816467 57.68737793 C-15.34797724 57.59610363 -21.14224067 55.60971481 -28.05371094 50.95776367 C-35.30467945 43.54200042 -37.17498691 35.86153807 -37.08105469 25.72729492 C-36.53013666 18.61191701 -33.42764309 12.94105257 -28.63964844 7.71557617 C-20.1451382 0.4500589 -10.65256259 -0.00477979 0 0 Z M-19.24121094 21.83276367 C-21.13334245 25.84408248 -21.6709048 28.79195048 -20.80371094 33.14526367 C-18.70351578 37.19564005 -17.0360879 39.47607373 -12.80371094 41.14526367 C-10.46310171 41.45416845 -10.46310171 41.45416845 -7.92802429 41.42614746 C-6.94818573 41.43756775 -5.96834717 41.44898804 -4.95881653 41.46075439 C-3.89015854 41.46299011 -2.82150055 41.46522583 -1.72045898 41.4675293 C-0.58995117 41.47745911 0.54055664 41.48738892 1.70532227 41.49761963 C5.44842964 41.52685015 9.19136752 41.54046424 12.93457031 41.55151367 C15.53525294 41.56301725 18.13593552 41.57453271 20.73661804 41.58605957 C25.49438118 41.60438976 30.25207656 41.61699204 35.00986892 41.62305307 C42.0022917 41.63201104 48.99393185 41.66709609 55.98611671 41.72505426 C62.05165949 41.773578 68.1168803 41.7889455 74.18260765 41.79240417 C76.7586207 41.7984569 79.33463045 41.81451306 81.91051674 41.84077454 C85.51589782 41.87490922 89.11937614 41.87113399 92.72485352 41.8581543 C93.78743881 41.87658386 94.85002411 41.89501343 95.94480896 41.91400146 C102.08931933 41.84475167 105.52382102 41.0142379 109.96991253 36.66158295 C112.59318209 33.418114 112.57034916 30.15921623 112.19628906 26.14526367 C110.94186365 22.38198745 109.93494179 20.69451826 106.75878906 18.33276367 C102.96487958 16.5746105 99.75427216 16.02035056 95.58634949 16.00482178 C94.20494026 15.99625656 94.20494026 15.99625656 92.79562378 15.98751831 C91.29081955 15.98584152 91.29081955 15.98584152 89.75561523 15.98413086 C88.69338242 15.97916595 87.6311496 15.97420105 86.53672791 15.96908569 C83.02089796 15.9544747 79.50511314 15.94766392 75.98925781 15.94213867 C73.54551695 15.9363865 71.10177611 15.93062877 68.65803528 15.92486572 C63.53268219 15.91435886 58.40734477 15.90851408 53.28198242 15.9050293 C46.71810319 15.89954425 40.15443136 15.87551441 33.59061718 15.84705734 C28.54197079 15.82842409 23.4933743 15.82322499 18.44469643 15.82169342 C16.02501605 15.81866811 13.60533654 15.8106437 11.18568993 15.79750824 C7.79868201 15.78043332 4.41218011 15.78233178 1.02514648 15.78881836 C0.02801636 15.77960358 -0.96911377 15.77038879 -1.99645996 15.76089478 C-8.98926657 15.80279713 -14.31720369 16.40373004 -19.24121094 21.83276367 Z " fill="#ffffff" transform="translate(264.8037109375,279.854736328125)"/>
<path d="M0 0 C0.96708893 -0.00571014 1.93417786 -0.01142029 2.93057251 -0.01730347 C3.98516663 -0.01842133 5.03976074 -0.01953918 6.12631226 -0.02069092 C7.8002153 -0.02813828 7.8002153 -0.02813828 9.50793457 -0.03573608 C13.20413834 -0.05035423 16.90029916 -0.05716003 20.5965271 -0.06268311 C23.16760255 -0.06843591 25.73867799 -0.07419363 28.30975342 -0.07995605 C33.01545202 -0.0891226 37.72113348 -0.09542256 42.42683947 -0.09845281 C49.3329476 -0.10292534 56.23885699 -0.12043744 63.14490473 -0.1494534 C69.1420607 -0.17376769 75.13912345 -0.18140172 81.13633347 -0.18312836 C83.67913264 -0.18614823 86.22193111 -0.1941542 88.76469803 -0.20731354 C92.33069974 -0.22444726 95.89622311 -0.22247534 99.46224976 -0.21600342 C100.50469849 -0.2252182 101.54714722 -0.23443298 102.6211853 -0.243927 C111.78060102 -0.1920878 120.09285262 1.38143037 127.35824585 7.26153564 C134.45384964 14.5698556 136.5761144 22.14931302 136.4559021 32.04278564 C135.7284917 40.28330636 131.14105122 46.63061912 125.1824646 52.14044189 C120.05442428 55.85237067 115.39142878 57.25487324 109.137146 57.29434204 C108.11957214 57.3029425 107.10199829 57.31154297 106.05358887 57.32040405 C104.94289032 57.324664 103.83219177 57.32892395 102.68783569 57.33331299 C101.51337891 57.34149048 100.33892212 57.34966797 99.12887573 57.35809326 C95.23789827 57.38292706 91.34692851 57.39961699 87.4559021 57.41387939 C86.11264668 57.41924238 84.76939132 57.42461989 83.42613602 57.43001175 C77.83462899 57.45163314 72.24312476 57.47036616 66.65158653 57.48163414 C58.65916031 57.49785029 50.66722194 57.53097891 42.67497957 57.58803499 C37.04421608 57.62685066 31.41358242 57.64628065 25.78268874 57.6515547 C22.42526047 57.65519331 19.06876508 57.66958613 15.71140671 57.69965744 C11.95838372 57.73135225 8.20658294 57.73133808 4.45346069 57.72393799 C2.80563095 57.74854599 2.80563095 57.74854599 1.12451172 57.77365112 C-7.54110352 57.70396987 -13.92282886 55.34275616 -20.6300354 49.82794189 C-27.99251794 40.7826062 -29.49338811 33.81189825 -28.8175354 22.14044189 C-27.66167898 15.08971774 -23.07321538 9.75962084 -17.8175354 5.14044189 C-12.22001578 1.80028265 -6.51078327 0.02309081 0 0 Z M-11.1925354 21.82794189 C-13.31537412 26.15526698 -13.34958322 28.35201148 -12.8175354 33.14044189 C-11.02103483 37.39531166 -8.99924746 39.25826578 -4.8175354 41.14044189 C-1.10645253 41.58832503 2.58498327 41.55004171 6.31918335 41.52862549 C7.4432962 41.53388245 8.56740906 41.5391394 9.72558594 41.54455566 C13.44052026 41.55775692 17.15502593 41.54901674 20.8699646 41.53887939 C23.45158979 41.54090008 26.03321442 41.54381148 28.61483765 41.5475769 C34.02513592 41.55200045 39.43527315 41.54585444 44.84555054 41.53155518 C51.09463323 41.51522937 57.34342225 41.5205182 63.59249783 41.53703439 C69.61159246 41.55230415 75.63054376 41.55066837 81.6496582 41.54188919 C84.20774374 41.53988693 86.76583677 41.54234736 89.32391357 41.54932785 C92.89806007 41.55694042 96.47164147 41.54533993 100.04574585 41.52862549 C101.10459991 41.53469818 102.16345398 41.54077087 103.25439453 41.54702759 C110.22613599 41.53132373 110.22613599 41.53132373 116.1824646 38.14044189 C118.57577385 35.49520535 120.05655316 33.54028081 120.38168335 29.92559814 C120.13556267 25.69935454 119.53402273 23.58701573 116.8699646 20.20294189 C112.98817571 17.22389461 110.37230199 15.89203641 105.4519043 15.87974548 C104.50427719 15.87266068 103.55665009 15.86557587 102.58030701 15.85827637 C101.03106789 15.86199249 101.03106789 15.86199249 99.45053101 15.86578369 C98.35743118 15.86067276 97.26433136 15.85556183 96.1381073 15.85029602 C92.52002506 15.83638148 88.90213293 15.83735832 85.2840271 15.83966064 C82.77062916 15.83577455 80.25723188 15.83144006 77.74383545 15.82667542 C72.4730365 15.81920905 67.20228684 15.81936923 61.93148804 15.82476807 C55.84661884 15.83080514 49.76198104 15.81850288 43.67715132 15.797198 C37.81559373 15.77743243 31.95412655 15.77441137 26.09254074 15.77793312 C23.60226269 15.77741959 21.11198098 15.77217598 18.62172318 15.7621212 C15.13869665 15.74978506 11.65620522 15.75653226 8.17318726 15.76812744 C6.63002083 15.75666183 6.63002083 15.75666183 5.05567932 15.7449646 C-1.77115585 15.79519771 -6.45861394 16.47113603 -11.1925354 21.82794189 Z " fill="#ffffff" transform="translate(256.8175354003906,357.85955810546875)"/>
<path d="M0 0 C6.70874859 5.6614329 10.68213912 10.66146015 11.64453125 19.4765625 C12.01594119 29.64664068 9.87406438 37.06207491 2.9921875 44.609375 C-4.47421604 51.15735988 -13.20600514 51.70170676 -22.72265625 51.11328125 C-29.79245113 49.92107301 -35.06184712 45.36127893 -39.72265625 40.11328125 C-44.32594092 33.08189038 -45.54727629 24.77340003 -44.16015625 16.55078125 C-41.96844982 8.38955862 -37.1825013 2.60426961 -30.01953125 -1.734375 C-20.31168577 -6.60480768 -8.97081233 -6.21650266 0 0 Z M-23.72265625 14.11328125 C-26.71103604 17.26768214 -28.61748088 19.69591585 -28.72265625 24.11328125 C-27.4634832 28.33521442 -26.28186125 30.61762227 -22.97265625 33.55078125 C-19.11762753 35.40416044 -16.95255443 35.71755242 -12.72265625 35.11328125 C-9.66908546 33.50007404 -7.48432059 32.08267223 -5.34765625 29.36328125 C-4.19678046 25.22012841 -3.61190577 21.20626563 -5.66796875 17.33203125 C-8.22525227 14.05098824 -10.7105048 12.14203803 -14.72265625 11.11328125 C-19.11012249 11.11328125 -20.2633783 11.60530474 -23.72265625 14.11328125 Z " fill="#ffffff" transform="translate(175.72265625,109.88671875)"/>
<path d="M0 0 C5.88994044 4.80714331 9.22506361 10.86736927 10.6875 18.3125 C11.4303471 27.37523462 9.4995895 34.62968929 3.625 41.6875 C-2.68982804 48.15486012 -8.72923894 50.42437765 -17.6875 50.9375 C-25.60424645 50.65709576 -32.57746641 47.96633721 -38.2890625 42.37890625 C-39.83426232 40.42647396 -41.09535711 38.48200382 -42.3125 36.3125 C-42.93125 35.260625 -43.55 34.20875 -44.1875 33.125 C-46.5308488 25.18365129 -46.52935426 16.80515339 -42.63671875 9.375 C-37.74878848 1.76194047 -32.47470897 -2.88392664 -23.75 -5.4375 C-15.03165511 -6.33168922 -7.2934573 -5.05037515 0 0 Z M-25.3125 13.3125 C-28.13907232 16.58537321 -29.22129625 18.5698409 -29.75 22.875 C-29.13984012 27.66911337 -27.81790963 30.09980891 -24.0625 33.125 C-20.54580403 34.64357326 -18.11289173 34.71968483 -14.3125 34.3125 C-10.66060766 32.65254894 -8.26764846 30.83176723 -6.3125 27.3125 C-5.13780937 23.16192645 -4.93344934 20.38897276 -6.875 16.5625 C-9.08310296 13.16247988 -11.46082208 11.67663593 -15.3125 10.3125 C-19.78288145 10.3125 -21.56029819 10.96737387 -25.3125 13.3125 Z " fill="#ffffff" transform="translate(106.3125,110.6875)"/>
<path d="M0 0 C5.7835251 5.94452259 8.83883697 12.75337813 9.13671875 21 C8.99500954 28.74247582 6.44790878 35.59631531 1.19921875 41.3125 C-5.94582476 47.72066978 -13.48838981 49.64180066 -22.98828125 49.328125 C-30.35362693 48.28109056 -36.48967799 44.63221258 -41.17578125 38.875 C-46.76032547 30.9198088 -48.03861378 24.64966 -47.17578125 14.875 C-45.26534273 7.49794524 -40.50198207 0.72075187 -34.12109375 -3.4765625 C-22.80245608 -9.4135083 -9.95389116 -8.07617944 0 0 Z M-27.17578125 11.875 C-29.63664708 14.5251632 -31.04844686 16.43102797 -31.37109375 20.08984375 C-31.12649723 24.41344687 -30.5243671 26.44597126 -27.73828125 29.875 C-24.15586737 32.67103035 -21.88255884 33.27680121 -17.27734375 33.2265625 C-12.89489928 32.49343982 -10.42630731 29.45175024 -7.73828125 26.0625 C-6.83613018 22.55413472 -7.23199559 19.31503033 -8.17578125 15.875 C-10.57612898 11.93157158 -12.72075516 10.10013217 -17.17578125 8.875 C-21.6461627 8.875 -23.42357944 9.52987387 -27.17578125 11.875 Z " fill="#ffffff" transform="translate(249.17578125,112.125)"/>
</svg>
